<svg width="413" height="413" viewBox="0 0 413 413" fill="none" xmlns="http://www.w3.org/2000/svg">
<path d="M106.005 351.085H173.276C174.588 351.085 175.651 352.148 175.651 353.46V363.872C175.651 365.184 174.588 366.247 173.276 366.247H106.005C104.694 366.247 103.63 365.184 103.63 363.872V353.46C103.63 352.148 104.694 351.085 106.005 351.085Z" fill="#9EB0C7"/>
<path d="M106.005 335.934H173.276C174.588 335.934 175.651 336.997 175.651 338.309V348.721C175.651 350.032 174.588 351.096 173.276 351.096H106.005C104.694 351.096 103.63 350.032 103.63 348.721V338.309C103.63 336.997 104.694 335.934 106.005 335.934Z" fill="#AEBED3"/>
<path d="M106.005 321.268H173.276C174.588 321.268 175.651 322.331 175.651 323.643V334.055C175.651 335.366 174.588 336.43 173.276 336.43H106.005C104.694 336.43 103.63 335.366 103.63 334.055V323.643C103.63 322.331 104.694 321.268 106.005 321.268Z" fill="#C2CFDF"/>
<path d="M106.005 306.601H173.276C174.588 306.601 175.651 307.664 175.651 308.976V319.388C175.651 320.699 174.588 321.763 173.276 321.763H106.005C104.694 321.763 103.63 320.699 103.63 319.388V308.976C103.63 307.664 104.694 306.601 106.005 306.601Z" fill="#D2DCE9"/>
<g filter="url(#filter0_f_1592_72755)">
<mask id="mask0_1592_72755" style="mask-type:alpha" maskUnits="userSpaceOnUse" x="99" y="306" width="73" height="61">
<path d="M101.376 351.085H168.646C169.958 351.085 171.021 352.148 171.021 353.46V363.872C171.021 365.184 169.958 366.247 168.646 366.247H101.376C100.064 366.247 99.0005 365.184 99.0005 363.872V353.46C99.0005 352.148 100.064 351.085 101.376 351.085Z" fill="#9EB0C7"/>
<path d="M101.376 335.935H168.646C169.958 335.935 171.021 336.998 171.021 338.31V348.722C171.021 350.033 169.958 351.097 168.646 351.097H101.376C100.064 351.097 99.0005 350.033 99.0005 348.722V338.31C99.0005 336.998 100.064 335.935 101.376 335.935Z" fill="#AEBED3"/>
<path d="M101.376 321.268H168.646C169.958 321.268 171.021 322.331 171.021 323.643V334.055C171.021 335.366 169.958 336.43 168.646 336.43H101.376C100.064 336.43 99.0005 335.366 99.0005 334.055V323.643C99.0005 322.331 100.064 321.268 101.376 321.268Z" fill="#C2CFDF"/>
<path d="M101.376 306.601H168.646C169.958 306.601 171.021 307.664 171.021 308.976V319.388C171.021 320.699 169.958 321.763 168.646 321.763H101.376C100.064 321.763 99.0005 320.699 99.0005 319.388V308.976C99.0005 307.664 100.064 306.601 101.376 306.601Z" fill="#D2DCE9"/>
</mask>
<g mask="url(#mask0_1592_72755)">
<path d="M286.579 366.299H157.644C154.965 366.299 140.685 354.074 139.913 337.478C139.463 327.824 142.434 318.04 146.29 310.236C150.889 300.928 159.239 293.622 162.685 283.828C170.018 262.986 185.023 252.913 195.491 251.407L230.119 247.846C253.315 247.846 269.736 259.879 276.981 271.779C280.312 277.251 284.244 282.661 289.485 286.344C294.732 290.031 298.626 293.898 301.681 297.543C307.346 304.302 311.248 312.508 312.667 321.212C317.33 349.814 301.417 363.085 286.579 366.299Z" fill="black" fill-opacity="0.05"/>
</g>
</g>
<circle cx="322.757" cy="321.992" r="38.4938" fill="#D2DCE9"/>
<path fill-rule="evenodd" clip-rule="evenodd" d="M341.897 320.969L342.224 321.244C342.862 320.483 343.122 319.638 343.042 318.829C342.962 318.015 342.54 317.246 341.76 316.648C341.025 316.076 340.167 315.784 339.323 315.839C338.511 315.891 337.717 316.254 337.073 317.014L337.072 317.015L328.907 326.481L331.113 314.537L330.694 314.459L330.694 314.459L331.115 314.525C331.269 313.545 331.103 312.709 330.751 312.024C330.336 311.217 329.663 310.631 328.923 310.269C328.144 309.889 327.234 309.716 326.316 309.906C325.539 310.067 324.764 310.482 324.081 311.256L316.122 320.194L318.707 307.838L318.289 307.751L318.289 307.751L318.71 307.821C318.891 306.742 318.61 305.908 318.077 305.279C317.523 304.625 316.677 304.223 315.724 304.014L315.709 304.011C314.733 303.834 313.837 304.014 313.132 304.509C312.462 304.979 311.971 305.725 311.787 306.744L310.685 312.694L307.482 311.129C306.679 310.737 305.791 310.704 305.008 310.97C304.225 311.236 303.543 311.802 303.152 312.602C302.761 313.403 302.734 314.288 303.006 315.069C303.277 315.851 303.848 316.531 304.652 316.923L309.466 319.275L307.971 327.348L308.393 327.426L307.97 327.357C307.807 328.354 307.969 329.199 308.324 329.892C308.74 330.706 309.42 331.296 310.178 331.666C310.94 332.038 311.857 332.214 312.786 332.022C313.562 331.861 314.339 331.45 315.018 330.681L323.565 321.099L321.125 333.729L321.546 333.811L321.123 333.739C320.951 334.756 321.111 335.613 321.473 336.318C321.894 337.134 322.583 337.727 323.389 338.119L323.4 338.124C324.156 338.467 325.042 338.609 325.938 338.403C326.686 338.23 327.432 337.818 328.093 337.07L328.094 337.069L333.499 331.016L338.12 333.274C338.924 333.667 339.811 333.699 340.594 333.433C341.377 333.167 342.059 332.602 342.45 331.801C342.841 331 342.868 330.115 342.597 329.334C342.325 328.553 341.754 327.873 340.951 327.48L337.961 326.019L342.215 321.254L341.897 320.969L341.897 320.969Z" fill="#76879C"/>
<g filter="url(#filter1_f_1592_72755)">
<mask id="mask1_1592_72755" style="mask-type:alpha" maskUnits="userSpaceOnUse" x="284" y="283" width="78" height="78">
<circle cx="322.757" cy="321.992" r="38.4938" fill="black"/>
</mask>
<g mask="url(#mask1_1592_72755)">
<path d="M320.035 305.536L283.088 257.776C276.152 248.825 267.465 241.139 257.473 235.161L247.893 229.404H226.982L217.402 235.161C207.41 241.17 198.723 248.825 191.787 257.776L154.841 305.536C142.274 321.762 144.54 343.998 160.129 357.82L164.119 361.357C169.202 365.864 175.761 368.353 182.554 368.353H234.193H292.356C299.149 368.353 305.708 365.864 310.791 361.357L314.781 357.82C330.336 343.998 332.602 321.762 320.035 305.536Z" fill="#3E3E3E" fill-opacity="0.08"/>
</g>
</g>
<path d="M281.177 351.2H342.823C344.025 351.2 345 352.252 345 353.55V363.85C345 365.148 344.025 366.2 342.823 366.2H281.177C279.975 366.2 279 365.148 279 363.85V353.55C279 352.252 279.975 351.2 281.177 351.2Z" fill="#B5C1D0"/>
<path fill-rule="evenodd" clip-rule="evenodd" d="M153 208.441C160.893 207.538 167.106 201.286 167.958 193.388L168 193L168.042 193.388C168.894 201.286 175.107 207.538 183 208.441C175.107 209.344 168.894 215.597 168.042 223.495L168 223.882L167.958 223.495C167.106 215.597 160.893 209.344 153 208.441Z" fill="#FFEF9F"/>
<path fill-rule="evenodd" clip-rule="evenodd" d="M126 269C129.157 268.649 131.649 266.157 132 263V263C132.351 266.157 134.843 268.649 138 269C134.843 269.351 132.351 271.843 132 275C131.649 271.843 129.157 269.351 126 269V269Z" fill="#FFEF9F"/>
<path fill-rule="evenodd" clip-rule="evenodd" d="M292 241C296.736 240.474 300.474 236.736 301 232V232C301.526 236.736 305.264 240.474 310 241C305.264 241.526 301.526 245.264 301 250C300.474 245.264 296.736 241.526 292 241V241Z" fill="#FFEF9F"/>
<path d="M307.035 303.536L270.088 255.776C263.152 246.825 254.465 239.139 244.473 233.161L234.893 227.404H213.982L204.402 233.161C194.41 239.17 185.723 246.825 178.787 255.776L141.841 303.536C129.274 319.762 131.54 341.998 147.129 355.82L151.119 359.357C156.202 363.864 162.761 366.353 169.554 366.353H221.193H279.356C286.149 366.353 292.708 363.864 297.791 359.357L301.781 355.82C317.336 341.998 319.602 319.762 307.035 303.536Z" fill="white"/>
<path d="M201.962 271.624H198.698C198.834 272.202 199.259 272.78 199.973 273.392C200.602 273.97 201.486 274.497 202.625 275.007L201.401 276.35C200.109 275.772 199.021 275.041 198.137 274.157C197.899 273.919 197.746 273.749 197.644 273.613C197.508 273.8 197.321 274.038 197.049 274.31C196.097 275.296 195.009 276.044 193.768 276.571L192.425 275.245C193.717 274.684 194.72 274.055 195.4 273.358C195.995 272.763 196.369 272.185 196.505 271.624H193.139V269.941H201.962V271.624ZM200.262 269.261H194.924V267.544H200.262V269.261ZM196.624 277.948V275.398H198.664V277.931C200.279 277.88 201.775 277.761 203.152 277.557V279.291C201.35 279.563 199.106 279.682 196.403 279.682H192V277.948H196.624ZM205.77 281.926H203.73V267H205.77V281.926Z" fill="#446CEC"/>
<path d="M215.01 278.492C213.633 278.662 212.256 278.747 210.896 278.747H208.04V268.275H214.313V270.043H210.097V276.996H211.185C212.273 276.996 213.548 276.911 215.01 276.741V278.492ZM221.028 281.926H219.022V274.072H217.407V281.416H215.418V267.306H217.407V272.253H219.022V267H221.028V281.926Z" fill="#446CEC"/>
<path d="M233.951 270.57H224.686V269.04H233.951V270.57ZM231.809 268.632H226.828V267.102H231.809V268.632ZM233.475 273.239C233.475 273.562 233.356 273.868 233.152 274.14C232.914 274.446 232.625 274.701 232.268 274.905C231.86 275.126 231.401 275.279 230.908 275.347C230.398 275.449 229.871 275.483 229.327 275.483C228.783 275.483 228.273 275.449 227.797 275.364C227.287 275.296 226.828 275.143 226.42 274.905C226.029 274.684 225.74 274.429 225.553 274.14C225.349 273.868 225.264 273.579 225.264 273.239C225.264 272.899 225.366 272.593 225.57 272.287C225.757 271.998 226.046 271.743 226.42 271.522C226.828 271.284 227.287 271.114 227.797 271.012C228.273 270.944 228.783 270.893 229.327 270.893C229.871 270.893 230.398 270.944 230.908 271.029C231.401 271.131 231.843 271.301 232.251 271.522C232.608 271.726 232.897 271.981 233.135 272.27C233.356 272.576 233.475 272.899 233.475 273.239ZM231.401 273.239C231.401 273.018 231.214 272.831 230.857 272.661C230.483 272.508 229.973 272.423 229.327 272.423C228.681 272.423 228.205 272.508 227.865 272.644C227.508 272.814 227.338 273.001 227.338 273.239C227.338 273.426 227.508 273.596 227.848 273.732C228.171 273.902 228.664 273.97 229.327 273.97C229.973 273.97 230.483 273.902 230.857 273.732C231.214 273.579 231.401 273.409 231.401 273.239ZM237.096 275.551H235.056V267H237.096V270.74H239.153V272.559H237.096V275.551ZM237.385 281.926H226.794V278.237H235.039V277.472H226.794V276.01H237.113V279.682H228.868V280.447H237.385V281.926Z" fill="#446CEC"/>
<path d="M248.631 271.777C248.631 272.338 248.512 272.865 248.274 273.358C248.019 273.868 247.696 274.31 247.322 274.684C246.931 275.058 246.472 275.33 245.962 275.534C245.418 275.755 244.857 275.857 244.245 275.857C243.65 275.857 243.089 275.755 242.579 275.534C242.035 275.33 241.576 275.058 241.202 274.684C240.828 274.31 240.522 273.868 240.301 273.358C240.063 272.865 239.944 272.338 239.944 271.777C239.944 271.216 240.063 270.689 240.301 270.179C240.522 269.703 240.828 269.261 241.202 268.887C241.576 268.513 242.035 268.207 242.579 267.986C243.089 267.782 243.65 267.663 244.245 267.663C244.857 267.663 245.418 267.782 245.962 267.986C246.472 268.207 246.931 268.513 247.322 268.887C247.696 269.261 248.019 269.703 248.274 270.179C248.512 270.689 248.631 271.216 248.631 271.777ZM246.557 271.777C246.557 271.454 246.489 271.148 246.37 270.859C246.234 270.587 246.081 270.332 245.877 270.111C245.673 269.907 245.435 269.737 245.163 269.601C244.874 269.482 244.568 269.414 244.262 269.414C243.956 269.414 243.684 269.482 243.412 269.601C243.123 269.737 242.885 269.907 242.681 270.111C242.477 270.332 242.307 270.587 242.205 270.859C242.069 271.148 242.018 271.454 242.018 271.777C242.018 272.117 242.069 272.423 242.205 272.695C242.307 272.984 242.477 273.222 242.681 273.426C242.885 273.647 243.123 273.817 243.412 273.919C243.684 274.055 243.956 274.106 244.262 274.106C244.568 274.106 244.874 274.055 245.163 273.919C245.435 273.817 245.673 273.647 245.877 273.426C246.081 273.222 246.234 272.984 246.37 272.695C246.489 272.423 246.557 272.117 246.557 271.777ZM252.864 267V278.407H250.841V267H252.864ZM253.306 281.926H242.409V276.979H244.5V280.175H253.306V281.926Z" fill="#446CEC"/>
<path d="M251.725 187.874L245.91 176.993C245.604 176.392 244.72 176.266 244.244 176.772L214.93 207.358C211.359 211.09 209.386 215.929 209.386 220.927V225.861H237.272L275.428 194.642C276.041 194.136 275.802 193.187 274.986 192.998L251.725 187.874Z" fill="white"/>
<path d="M242.53 223.545H206.348C205.026 223.545 203.983 224.618 203.983 225.976V229.606C203.983 230.931 205.061 232.036 206.348 232.036H242.53C243.852 232.036 244.895 230.963 244.895 229.606V225.976C244.895 224.618 243.852 223.545 242.53 223.545Z" fill="#446CEC"/>
<path d="M251.843 187.921H251.809L245.889 176.995C245.681 176.647 245.3 176.457 244.919 176.457L231.001 207.334L251.843 187.921Z" fill="#F3F3F3"/>
<path d="M266.69 297.516V303.726H251.732L250.706 311.556C251.57 311.448 252.488 311.34 253.352 311.34C257.132 311.34 260.318 312.312 262.856 314.256C266.258 316.902 267.986 320.574 267.986 325.272C267.986 329.646 266.474 333.048 263.558 335.478C260.534 337.962 256.7 339.15 252.002 339.15C247.628 339.15 243.848 338.124 240.716 336.072L243.146 330.348C246.17 332.184 249.032 333.048 251.732 333.048C254.054 333.048 256.106 332.454 257.834 331.212C259.562 330.024 260.426 328.242 260.426 325.866C260.426 323.328 259.562 321.276 257.942 319.71C256.214 318.198 253.46 317.442 249.626 317.442C247.52 317.442 245.522 317.874 243.686 318.684L246.224 297.516H266.69Z" fill="#446CEC"/>
<path d="M230.559 339.096V331.05H238.713V339.096H230.559Z" fill="#446CEC"/>
<path d="M227.331 338.502H200.061V333.804L204.705 329.268C209.781 324.192 213.507 320.412 215.775 317.82C217.989 315.336 219.123 312.744 219.177 310.098C219.177 308.046 218.583 306.318 217.449 304.914C216.261 303.564 214.425 302.862 212.049 302.862C209.295 302.862 206.433 304.374 203.517 307.344L201.411 301.08C204.921 298.11 208.917 296.598 213.399 296.598C217.287 296.598 220.473 297.84 222.957 300.216C225.333 302.646 226.575 305.67 226.575 309.342C226.575 312.744 225.495 315.822 223.389 318.522C221.229 321.33 218.313 324.57 214.533 328.296L210.213 332.67H227.331V338.502Z" fill="#446CEC"/>
<path d="M171.021 335.262L172.641 329.538C175.935 331.86 178.959 332.994 181.713 332.994C184.359 332.994 186.357 332.454 187.707 331.266C189.003 330.132 189.705 328.566 189.705 326.622C189.705 324.354 188.787 322.572 186.951 321.33C185.061 320.142 182.631 319.548 179.661 319.548H177.177V313.932H179.445C182.037 313.932 184.251 313.5 186.033 312.528C187.761 311.61 188.625 310.152 188.625 308.154C188.625 306.642 188.031 305.346 186.951 304.32C185.763 303.348 184.197 302.808 182.145 302.808C179.229 302.808 176.583 303.888 174.099 306.048L172.371 300.378C173.505 299.514 175.125 298.65 177.231 297.786C179.283 297.03 181.497 296.598 183.765 296.598C187.599 296.598 190.623 297.624 192.891 299.568C195.051 301.566 196.185 303.996 196.185 306.804C196.185 309.234 195.537 311.232 194.295 312.852C192.999 314.526 191.379 315.768 189.381 316.578C191.433 317.01 193.323 318.144 194.997 319.98C196.617 321.924 197.481 324.246 197.481 326.946C197.481 330.618 196.077 333.588 193.323 335.802C190.515 338.07 186.789 339.15 182.091 339.15C177.879 339.15 174.207 337.854 171.021 335.262Z" fill="#446CEC"/>
<path d="M285.836 322.159L277.161 338.539H275.065L283.74 322.159H285.836ZM280.169 326.273C280.169 326.856 280.053 327.399 279.839 327.904C279.606 328.428 279.335 328.893 278.985 329.282C278.616 329.67 278.189 329.98 277.685 330.194C277.18 330.427 276.637 330.543 276.074 330.543C275.511 330.543 274.987 330.427 274.502 330.194C273.997 329.98 273.551 329.67 273.202 329.282C272.852 328.893 272.561 328.428 272.367 327.904C272.134 327.399 272.037 326.856 272.037 326.273C272.037 325.672 272.134 325.109 272.367 324.585C272.561 324.08 272.852 323.634 273.202 323.246C273.551 322.857 273.997 322.528 274.502 322.295C274.987 322.062 275.511 321.945 276.074 321.945C276.637 321.945 277.18 322.062 277.685 322.295C278.189 322.528 278.616 322.857 278.985 323.246C279.335 323.634 279.606 324.08 279.839 324.585C280.053 325.109 280.169 325.672 280.169 326.273ZM277.957 326.273C277.957 325.633 277.762 325.089 277.394 324.643C277.006 324.216 276.579 323.983 276.074 323.983C275.589 323.983 275.162 324.216 274.812 324.643C274.424 325.089 274.25 325.633 274.25 326.273C274.25 326.894 274.424 327.418 274.812 327.845C275.162 328.292 275.589 328.505 276.074 328.505C276.579 328.505 277.006 328.292 277.394 327.845C277.762 327.418 277.957 326.894 277.957 326.273ZM288.961 334.464C288.961 335.046 288.844 335.609 288.631 336.113C288.398 336.637 288.126 337.103 287.777 337.491C287.408 337.879 286.981 338.17 286.477 338.384C285.972 338.617 285.429 338.733 284.885 338.733C284.303 338.733 283.779 338.617 283.294 338.384C282.789 338.17 282.343 337.879 281.993 337.491C281.644 337.103 281.372 336.637 281.178 336.113C280.945 335.609 280.848 335.046 280.848 334.464C280.848 333.881 280.945 333.318 281.178 332.794C281.372 332.29 281.644 331.843 281.993 331.455C282.343 331.067 282.789 330.737 283.294 330.504C283.779 330.271 284.303 330.155 284.885 330.155C285.429 330.155 285.972 330.271 286.477 330.504C286.981 330.737 287.408 331.067 287.777 331.455C288.126 331.843 288.398 332.29 288.631 332.794C288.844 333.318 288.961 333.881 288.961 334.464ZM286.768 334.464C286.768 333.842 286.574 333.299 286.205 332.853C285.817 332.426 285.37 332.193 284.885 332.193C284.4 332.193 283.973 332.426 283.604 332.853C283.216 333.299 283.041 333.842 283.041 334.464C283.041 335.085 283.216 335.609 283.604 336.036C283.973 336.482 284.4 336.695 284.885 336.695C285.37 336.695 285.817 336.482 286.205 336.036C286.574 335.609 286.768 335.085 286.768 334.464Z" fill="#446CEC"/>
<defs>
<filter id="filter0_f_1592_72755" x="136.78" y="303.513" width="37.329" height="65.822" filterUnits="userSpaceOnUse" color-interpolation-filters="sRGB">
<feFlood flood-opacity="0" result="BackgroundImageFix"/>
<feBlend mode="normal" in="SourceGraphic" in2="BackgroundImageFix" result="shape"/>
<feGaussianBlur stdDeviation="1.54387" result="effect1_foregroundBlur_1592_72755"/>
</filter>
<filter id="filter1_f_1592_72755" x="280.263" y="279.498" width="51.8782" height="84.9873" filterUnits="userSpaceOnUse" color-interpolation-filters="sRGB">
<feFlood flood-opacity="0" result="BackgroundImageFix"/>
<feBlend mode="normal" in="SourceGraphic" in2="BackgroundImageFix" result="shape"/>
<feGaussianBlur stdDeviation="2" result="effect1_foregroundBlur_1592_72755"/>
</filter>
</defs>
</svg>
