<svg width="413" height="413" viewBox="0 0 413 413" fill="none" xmlns="http://www.w3.org/2000/svg">
<path opacity="0.7" fill-rule="evenodd" clip-rule="evenodd" d="M138.004 257.149C135.636 256.886 133.767 255.017 133.504 252.649C133.241 255.017 131.372 256.886 129.004 257.149C131.372 257.412 133.241 259.282 133.504 261.649C133.767 259.282 135.636 257.412 138.004 257.149Z" fill="white"/>
<path opacity="0.7" fill-rule="evenodd" clip-rule="evenodd" d="M314 230.5C318.472 230.003 322.003 226.472 322.5 222V222C322.997 226.472 326.528 230.003 331 230.5C326.528 230.997 322.997 234.528 322.5 239C322.003 234.528 318.472 230.997 314 230.5V230.5Z" fill="white"/>
<path opacity="0.7" fill-rule="evenodd" clip-rule="evenodd" d="M154 195C160.314 194.298 165.298 189.314 166 183C166.702 189.314 171.686 194.298 178 195C171.686 195.702 166.702 200.686 166 207C165.298 200.686 160.314 195.702 154 195Z" fill="white"/>
<path d="M136.808 285.213C151.612 270.409 174.018 278.011 176.018 278.411L167.616 306.819L174.418 320.423L132.806 353.232C129.926 348.75 130.406 334.426 130.806 331.626L115.202 305.619C121.603 301.457 132.273 290.281 136.808 285.213Z" fill="#FFCABF"/>
<path d="M327.26 285.213C312.456 270.409 290.05 278.011 288.049 278.411L296.451 306.819L289.649 320.423L331.261 353.232C334.142 348.75 333.662 334.426 333.261 331.626L348.866 305.619C342.464 301.457 331.794 290.281 327.26 285.213Z" fill="#FFCABF"/>
<g filter="url(#filter0_f_8543_24824)">
<path d="M138.528 303.291C150.75 306.33 155.272 299.323 156.005 295.44L158.967 297.951L160.568 317.548C156.37 317.585 147.794 317.399 147.079 316.356C146.185 315.053 138.93 303.388 138.528 303.291Z" fill="#FCB0A0"/>
</g>
<g filter="url(#filter1_f_8543_24824)">
<mask id="mask0_8543_24824" style="mask-type:alpha" maskUnits="userSpaceOnUse" x="115" y="276" width="62" height="78">
<path d="M137.207 285.117C152.011 270.313 174.417 277.915 176.418 278.315L168.015 306.723L174.817 320.327L133.206 353.136C130.325 348.655 130.805 334.331 131.205 331.53L115.601 305.523C122.003 301.362 132.672 290.185 137.207 285.117Z" fill="#FFCABF"/>
</mask>
<g mask="url(#mask0_8543_24824)">
<path d="M157.564 276.351L163.5 276.851C166.264 286.17 169.568 304.929 171.779 307.415C173.99 309.9 172.7 323.723 171.779 330.324L148.482 349.351H127.949L124 333.819L136.904 326.544C147.376 320.639 154.306 309.993 155.464 298.027L157.564 276.351Z" fill="#FCB0A0"/>
</g>
</g>
<g filter="url(#filter2_f_8543_24824)">
<path d="M294.05 319.072C306.424 296.487 329.306 299.07 334.461 301.716L332.587 312.303L320.4 327.3L313.656 330.275L303.058 333.476L301.652 327.3L294.05 319.072Z" fill="#FCB0A0"/>
</g>
<path d="M161.5 254.3H305.3C305.4 254.3 305.5 254.4 305.5 254.5V334.7C305.5 334.8 305.4 334.9 305.3 334.9H161.5C161.4 334.9 161.3 334.8 161.3 334.7V254.5C161.3 254.4 161.4 254.3 161.5 254.3Z" fill="url(#paint0_linear_8543_24824)"/>
<path d="M179.7 265.3H305.5" stroke="url(#paint1_linear_8543_24824)"/>
<path d="M161.3 275.3H267.3" stroke="url(#paint2_linear_8543_24824)"/>
<path d="M179.7 286.3H305.5" stroke="url(#paint3_linear_8543_24824)"/>
<path d="M179.7 306.3H305.5" stroke="url(#paint4_linear_8543_24824)" stroke-opacity="0.7"/>
<path d="M161.5 296.3H267.5" stroke="url(#paint5_linear_8543_24824)"/>
<path d="M161.5 316.3H267.5" stroke="url(#paint6_linear_8543_24824)" stroke-opacity="0.7"/>
<path d="M170.2 275.851L173.9 283.651C173.9 283.651 217.8 276.451 221.2 275.851H170.2Z" fill="#FFC454"/>
<path d="M181.4 215C180.6 215 179.9 215.4 179.6 216.1L161.4 254.1C161.1 254.8 161.6 255.5 162.3 255.5H304.5C305.2 255.5 305.7 254.8 305.4 254.1L288.8 216.2C288.5 215.5 287.8 215 287 215H181.4Z" fill="#FFC454"/>
<path d="M207.3 217.9H284L298 250.2H200.9L207.3 217.9Z" fill="#FFCE5E"/>
<path d="M290.2 231.3C290.2 231.3 281.9 228.5 268.1 232.6C261.7 234.5 255 235.1 248.4 234.3C242.8 233.5 236.5 232.3 232.9 230.3C232.9 230.3 216.2 219.1 204.1 226.8L199.4 250.3H298L290.2 231.3Z" fill="#FEC552"/>
<path d="M237.4 250.2C237.4 250.2 241.6 241.1 251.9 238.2C262.8 235.1 272.1 238.2 272.1 238.2C272.1 238.2 280.8 240.8 286.8 250.2H237.4Z" fill="#FAB301"/>
<path d="M200.9 250.2L200 255.5H237V250.2H200.9Z" fill="#FFD47F"/>
<path d="M187.9 215L170.9 255.5H199.9L207.8 215H187.9Z" fill="#FFE296"/>
<path d="M251.2 238.4L260.2 247.9L262.9 244.9L254.3 237.7C254.2 237.7 251.8 238.2 251.2 238.4Z" fill="#FFE1A6"/>
<path d="M255.7 238.9L261.1 243.7L265.3 239.2L255.7 238.9Z" fill="#FFC64C"/>
<path d="M266.9 237.4L255 250.2H259.9L270.2 237.7C270.2 237.7 268.5 237.5 266.9 237.4Z" fill="#FFE1A6"/>
<path d="M273.9 232.2C274 231.7 273.7 231.2 273.3 230.8C273.5 230.6 273.6 230.3 273.6 230C273.7 229.2 273.2 228.6 272.5 228.1C272.7 226.1 271 224.1 270.2 223.3C270.1 223.2 270 223.1 269.8 222.9C269 222.2 267.8 221.8 266.5 221.8H266.2C266 219.8 263.9 218.3 261.2 218.3C258.5 218.3 256.1 219.8 255.5 221.8H255.2C252.4 221.8 250 223.6 249.8 225.8C249.7 226.5 249.9 227.1 250.2 227.7C249.7 228.1 249.3 228.6 249.3 229.2C249.3 229.6 249.3 229.9 249.5 230.2C249.1 230.6 248.9 231 248.9 231.4C248.8 232.4 249.6 233.2 250.8 233.6C250.7 233.7 250.7 233.9 250.7 234C250.6 235 251.5 235.9 252.8 236.3C252.7 236.5 252.7 236.6 252.7 236.8C252.6 238.2 254.1 239.3 256.2 239.3C258.3 239.3 260 238.2 260.2 236.8C260.3 235.8 259.4 234.9 258.1 234.5C258.2 234.3 258.2 234.2 258.2 234C258.3 233 257.5 232.2 256.3 231.8C256.4 231.7 256.4 231.5 256.4 231.4C256.4 231 256.3 230.7 256.2 230.4C256.5 230.1 256.7 229.7 256.8 229.3C258.2 228.8 259.2 227.8 259.7 226.6H261.3C261.6 228.4 263.5 229.7 265.9 229.7H266.4V229.9C266.3 230.4 266.6 230.9 267 231.3C266.8 231.5 266.7 231.8 266.7 232.1V232.5C265.8 233 265.3 233.6 265.2 234.4V234.8C264.1 235.2 263.4 236 263.3 236.9C263.2 238.3 264.7 239.4 266.8 239.4C268.9 239.4 270.6 238.3 270.8 236.9V236.5C271.9 236.1 272.7 235.3 272.7 234.4V234C273.2 233.7 273.8 233 273.9 232.2Z" fill="#FFAF40"/>
<path d="M260.3 225.6C258.4 225.6 256.4 226.5 255 227.9C254.3 228.7 253.7 229.5 253.7 230.4L253.6 233.7V233.9C253.6 234.7 254.1 240.1 259.9 241.2H260.4C261.4 241.1 264.9 240.6 267.1 237.1C267.6 236.2 267.9 235.2 268 234.3L268.2 230.8V230.4C268 229.5 267.2 226.5 264.4 225.9C264.4 225.8 262.6 225.5 260.3 225.6Z" fill="#FFE4A5"/>
<path d="M237 250.2H303.7L305.4 254.1C305.7 254.8 305.2 255.5 304.5 255.5H237V250.2Z" fill="#FFE296"/>
<path d="M192.417 239.186L192.431 239.13L192.391 239.089L192.381 239.079L192.351 239.05H192.31H186.74H186.674L186.648 239.111L184.718 243.711L184.633 243.913L184.841 243.845C185.381 243.668 185.941 243.58 186.5 243.58C187.546 243.58 188.212 243.741 188.562 244.044C188.882 244.355 188.995 244.766 188.854 245.284L188.853 245.286C188.731 245.772 188.415 246.13 187.897 246.38L187.897 246.38L187.895 246.38C187.371 246.643 186.786 246.77 186.17 246.77C185.457 246.77 184.744 246.594 184.039 246.202L183.965 246.161L183.912 246.228L182.922 247.468L182.851 247.556L182.948 247.615C183.699 248.078 184.689 248.3 185.89 248.3C187.184 248.3 188.321 248.037 189.299 247.487C190.25 246.956 190.879 246.195 191.146 245.216L191.146 245.216C191.29 244.687 191.297 244.21 191.164 243.787C191.031 243.364 190.759 243.005 190.359 242.71L190.36 242.71L190.359 242.709C189.756 242.272 188.922 242.06 187.88 242.06C187.692 242.06 187.497 242.078 187.31 242.095C187.31 242.095 187.309 242.095 187.309 242.095L187.956 240.61H191.96H192.037L192.057 240.536L192.417 239.186Z" fill="#B57200" stroke="#B57200" stroke-width="0.2"/>
<mask id="path-31-outside-1_8543_24824" maskUnits="userSpaceOnUse" x="191.763" y="238" width="10" height="11" fill="black">
<rect fill="white" x="191.763" y="238" width="10" height="11"/>
<path d="M200.76 240.21C201.17 241.03 201.19 242.14 200.81 243.55C200.41 245.04 199.76 246.19 198.87 246.98C197.97 247.8 196.9 248.2 195.63 248.2C194.36 248.2 193.57 247.79 193.13 246.97C192.67 246.15 192.65 245.03 193.03 243.63C193.42 242.2 194.06 241.06 194.99 240.23C195.9 239.41 196.98 239 198.22 239C199.46 239 200.33 239.41 200.76 240.21ZM198.8 243.58C199.39 241.39 199.07 240.28 197.84 240.28C197.25 240.28 196.72 240.56 196.25 241.11C195.75 241.67 195.35 242.52 195.07 243.63C194.76 244.73 194.69 245.56 194.89 246.1C195.07 246.65 195.46 246.92 196.05 246.92C196.64 246.92 197.18 246.64 197.66 246.07C198.12 245.51 198.51 244.67 198.8 243.56"/>
</mask>
<path d="M200.76 240.21C201.17 241.03 201.19 242.14 200.81 243.55C200.41 245.04 199.76 246.19 198.87 246.98C197.97 247.8 196.9 248.2 195.63 248.2C194.36 248.2 193.57 247.79 193.13 246.97C192.67 246.15 192.65 245.03 193.03 243.63C193.42 242.2 194.06 241.06 194.99 240.23C195.9 239.41 196.98 239 198.22 239C199.46 239 200.33 239.41 200.76 240.21ZM198.8 243.58C199.39 241.39 199.07 240.28 197.84 240.28C197.25 240.28 196.72 240.56 196.25 241.11C195.75 241.67 195.35 242.52 195.07 243.63C194.76 244.73 194.69 245.56 194.89 246.1C195.07 246.65 195.46 246.92 196.05 246.92C196.64 246.92 197.18 246.64 197.66 246.07C198.12 245.51 198.51 244.67 198.8 243.56" fill="#B57200"/>
<path d="M200.76 240.21L200.939 240.121L200.936 240.115L200.76 240.21ZM200.81 243.55L200.617 243.498L200.617 243.498L200.81 243.55ZM198.87 246.98L198.737 246.83L198.735 246.832L198.87 246.98ZM193.13 246.97L193.306 246.875L193.304 246.872L193.13 246.97ZM193.03 243.63L192.837 243.577L192.837 243.578L193.03 243.63ZM194.99 240.23L195.123 240.379L195.124 240.379L194.99 240.23ZM196.25 241.11L196.399 241.243L196.402 241.24L196.25 241.11ZM195.07 243.63L195.262 243.684L195.264 243.679L195.07 243.63ZM194.89 246.1L195.08 246.038L195.077 246.031L194.89 246.1ZM197.66 246.07L197.813 246.199L197.814 246.197L197.66 246.07ZM200.581 240.299C200.959 241.056 200.991 242.109 200.617 243.498L201.003 243.602C201.389 242.171 201.38 241.004 200.939 240.121L200.581 240.299ZM200.617 243.498C200.224 244.961 199.59 246.073 198.737 246.83L199.003 247.13C199.929 246.307 200.596 245.118 201.003 243.602L200.617 243.498ZM198.735 246.832C197.874 247.617 196.853 248 195.63 248V248.4C196.947 248.4 198.066 247.983 199.004 247.128L198.735 246.832ZM195.63 248C195.015 248 194.533 247.901 194.158 247.714C193.786 247.528 193.508 247.251 193.306 246.875L192.954 247.065C193.192 247.509 193.529 247.847 193.979 248.071C194.426 248.294 194.975 248.4 195.63 248.4V248ZM193.304 246.872C192.882 246.119 192.848 245.062 193.223 243.682L192.837 243.578C192.451 244.998 192.458 246.181 192.955 247.068L193.304 246.872ZM193.223 243.683C193.605 242.28 194.228 241.178 195.123 240.379L194.857 240.081C193.891 240.942 193.234 242.12 192.837 243.577L193.223 243.683ZM195.124 240.379C195.996 239.592 197.028 239.2 198.22 239.2V238.8C196.931 238.8 195.803 239.228 194.856 240.081L195.124 240.379ZM198.22 239.2C199.418 239.2 200.201 239.594 200.584 240.305L200.936 240.115C200.458 239.226 199.502 238.8 198.22 238.8V239.2ZM198.993 243.632C199.29 242.53 199.37 241.66 199.194 241.053C199.105 240.743 198.945 240.494 198.708 240.325C198.472 240.156 198.177 240.08 197.84 240.08V240.48C198.118 240.48 198.324 240.543 198.475 240.65C198.625 240.757 198.74 240.923 198.81 241.164C198.954 241.66 198.9 242.44 198.607 243.528L198.993 243.632ZM197.84 240.08C197.177 240.08 196.596 240.397 196.098 240.98L196.402 241.24C196.844 240.723 197.322 240.48 197.84 240.48V240.08ZM196.101 240.977C195.571 241.57 195.16 242.454 194.876 243.581L195.264 243.679C195.539 242.586 195.929 241.77 196.399 241.243L196.101 240.977ZM194.877 243.576C194.566 244.68 194.478 245.565 194.702 246.169L195.077 246.031C194.901 245.555 194.953 244.78 195.262 243.684L194.877 243.576ZM194.7 246.162C194.8 246.469 194.965 246.714 195.201 246.88C195.436 247.045 195.724 247.12 196.05 247.12V246.72C195.785 246.72 195.583 246.66 195.431 246.553C195.28 246.446 195.159 246.281 195.08 246.038L194.7 246.162ZM196.05 247.12C196.712 247.12 197.304 246.802 197.813 246.199L197.507 245.941C197.055 246.478 196.567 246.72 196.05 246.72V247.12ZM197.814 246.197C198.299 245.606 198.699 244.736 198.993 243.611L198.606 243.509C198.32 244.604 197.94 245.414 197.505 245.943L197.814 246.197Z" fill="#B57200" mask="url(#path-31-outside-1_8543_24824)"/>
<mask id="path-33-outside-2_8543_24824" maskUnits="userSpaceOnUse" x="200.763" y="238" width="10" height="11" fill="black">
<rect fill="white" x="200.763" y="238" width="10" height="11"/>
<path d="M209.75 240.21C210.16 241.03 210.18 242.14 209.8 243.55C209.4 245.04 208.76 246.19 207.87 246.98C206.97 247.8 205.9 248.2 204.63 248.2C203.36 248.2 202.57 247.79 202.13 246.97C201.67 246.15 201.65 245.03 202.03 243.63C202.42 242.2 203.06 241.06 203.99 240.23C204.91 239.41 205.98 239 207.22 239C208.46 239 209.33 239.41 209.76 240.21H209.75ZM207.79 243.58C208.38 241.39 208.06 240.28 206.83 240.28C206.24 240.28 205.71 240.56 205.24 241.11C204.74 241.67 204.34 242.52 204.06 243.63C203.75 244.73 203.68 245.56 203.88 246.1C204.06 246.65 204.45 246.92 205.04 246.92C205.63 246.92 206.17 246.64 206.65 246.07C207.11 245.51 207.5 244.67 207.79 243.56"/>
</mask>
<path d="M209.75 240.21C210.16 241.03 210.18 242.14 209.8 243.55C209.4 245.04 208.76 246.19 207.87 246.98C206.97 247.8 205.9 248.2 204.63 248.2C203.36 248.2 202.57 247.79 202.13 246.97C201.67 246.15 201.65 245.03 202.03 243.63C202.42 242.2 203.06 241.06 203.99 240.23C204.91 239.41 205.98 239 207.22 239C208.46 239 209.33 239.41 209.76 240.21H209.75ZM207.79 243.58C208.38 241.39 208.06 240.28 206.83 240.28C206.24 240.28 205.71 240.56 205.24 241.11C204.74 241.67 204.34 242.52 204.06 243.63C203.75 244.73 203.68 245.56 203.88 246.1C204.06 246.65 204.45 246.92 205.04 246.92C205.63 246.92 206.17 246.64 206.65 246.07C207.11 245.51 207.5 244.67 207.79 243.56" fill="#B57200"/>
<path d="M209.75 240.21V240.01H209.426L209.571 240.299L209.75 240.21ZM209.8 243.55L209.607 243.498L209.607 243.498L209.8 243.55ZM207.87 246.98L207.737 246.83L207.735 246.832L207.87 246.98ZM202.13 246.97L202.306 246.875L202.304 246.872L202.13 246.97ZM202.03 243.63L201.837 243.577L201.837 243.578L202.03 243.63ZM203.99 240.23L203.857 240.081L203.857 240.081L203.99 240.23ZM209.76 240.21V240.41H210.094L209.936 240.115L209.76 240.21ZM205.24 241.11L205.389 241.243L205.392 241.24L205.24 241.11ZM204.06 243.63L204.252 243.684L204.254 243.679L204.06 243.63ZM203.88 246.1L204.07 246.038L204.067 246.031L203.88 246.1ZM206.65 246.07L206.803 246.199L206.804 246.197L206.65 246.07ZM209.571 240.299C209.949 241.056 209.981 242.109 209.607 243.498L209.993 243.602C210.379 242.171 210.37 241.004 209.929 240.121L209.571 240.299ZM209.607 243.498C209.214 244.963 208.59 246.074 207.737 246.83L208.003 247.13C208.93 246.306 209.586 245.117 209.993 243.602L209.607 243.498ZM207.735 246.832C206.874 247.617 205.853 248 204.63 248V248.4C205.947 248.4 207.066 247.983 208.004 247.128L207.735 246.832ZM204.63 248C204.015 248 203.533 247.901 203.158 247.714C202.786 247.528 202.508 247.251 202.306 246.875L201.954 247.065C202.192 247.509 202.529 247.847 202.979 248.071C203.426 248.294 203.975 248.4 204.63 248.4V248ZM202.304 246.872C201.882 246.119 201.848 245.062 202.223 243.682L201.837 243.578C201.451 244.998 201.458 246.181 201.955 247.068L202.304 246.872ZM202.223 243.683C202.605 242.28 203.228 241.178 204.123 240.379L203.857 240.081C202.891 240.942 202.234 242.12 201.837 243.577L202.223 243.683ZM204.123 240.379C205.006 239.592 206.029 239.2 207.22 239.2V238.8C205.931 238.8 204.813 239.228 203.857 240.081L204.123 240.379ZM207.22 239.2C208.418 239.2 209.201 239.594 209.584 240.305L209.936 240.115C209.458 239.226 208.502 238.8 207.22 238.8V239.2ZM209.76 240.01H209.75V240.41H209.76V240.01ZM207.983 243.632C208.28 242.53 208.36 241.66 208.184 241.053C208.095 240.743 207.935 240.494 207.698 240.325C207.462 240.156 207.167 240.08 206.83 240.08V240.48C207.108 240.48 207.314 240.543 207.465 240.65C207.615 240.757 207.73 240.923 207.8 241.164C207.944 241.66 207.89 242.44 207.597 243.528L207.983 243.632ZM206.83 240.08C206.167 240.08 205.586 240.397 205.088 240.98L205.392 241.24C205.834 240.723 206.312 240.48 206.83 240.48V240.08ZM205.091 240.977C204.561 241.57 204.15 242.454 203.866 243.581L204.254 243.679C204.529 242.586 204.919 241.77 205.389 241.243L205.091 240.977ZM203.867 243.576C203.556 244.68 203.468 245.565 203.692 246.169L204.067 246.031C203.891 245.555 203.943 244.78 204.252 243.684L203.867 243.576ZM203.69 246.162C203.79 246.469 203.955 246.714 204.191 246.88C204.426 247.045 204.714 247.12 205.04 247.12V246.72C204.775 246.72 204.573 246.66 204.421 246.553C204.27 246.446 204.149 246.281 204.07 246.038L203.69 246.162ZM205.04 247.12C205.702 247.12 206.294 246.802 206.803 246.199L206.497 245.941C206.045 246.478 205.557 246.72 205.04 246.72V247.12ZM206.804 246.197C207.289 245.606 207.689 244.736 207.983 243.611L207.596 243.509C207.31 244.604 206.93 245.414 206.495 245.943L206.804 246.197Z" fill="#B57200" mask="url(#path-33-outside-2_8543_24824)"/>
<mask id="path-35-outside-3_8543_24824" maskUnits="userSpaceOnUse" x="209.757" y="238" width="10" height="11" fill="black">
<rect fill="white" x="209.757" y="238" width="10" height="11"/>
<path d="M218.74 240.21C219.15 241.03 219.17 242.14 218.79 243.55C218.39 245.04 217.75 246.19 216.86 246.98C215.96 247.8 214.89 248.2 213.62 248.2C212.35 248.2 211.56 247.79 211.12 246.97C210.66 246.15 210.65 245.03 211.02 243.63C211.41 242.2 212.05 241.06 212.98 240.23C213.89 239.41 214.97 239 216.21 239C217.45 239 218.32 239.41 218.75 240.21H218.74ZM216.77 243.58C217.36 241.39 217.04 240.28 215.81 240.28C215.22 240.28 214.69 240.56 214.22 241.11C213.71 241.67 213.32 242.52 213.04 243.63C212.73 244.73 212.66 245.56 212.86 246.1C213.04 246.65 213.43 246.92 214.02 246.92C214.61 246.92 215.15 246.64 215.63 246.07C216.09 245.51 216.48 244.67 216.77 243.56"/>
</mask>
<path d="M218.74 240.21C219.15 241.03 219.17 242.14 218.79 243.55C218.39 245.04 217.75 246.19 216.86 246.98C215.96 247.8 214.89 248.2 213.62 248.2C212.35 248.2 211.56 247.79 211.12 246.97C210.66 246.15 210.65 245.03 211.02 243.63C211.41 242.2 212.05 241.06 212.98 240.23C213.89 239.41 214.97 239 216.21 239C217.45 239 218.32 239.41 218.75 240.21H218.74ZM216.77 243.58C217.36 241.39 217.04 240.28 215.81 240.28C215.22 240.28 214.69 240.56 214.22 241.11C213.71 241.67 213.32 242.52 213.04 243.63C212.73 244.73 212.66 245.56 212.86 246.1C213.04 246.65 213.43 246.92 214.02 246.92C214.61 246.92 215.15 246.64 215.63 246.07C216.09 245.51 216.48 244.67 216.77 243.56" fill="#B57200"/>
<path d="M218.74 240.21V240.01H218.416L218.561 240.299L218.74 240.21ZM218.79 243.55L218.597 243.498L218.597 243.498L218.79 243.55ZM216.86 246.98L216.727 246.83L216.725 246.832L216.86 246.98ZM211.12 246.97L211.296 246.875L211.294 246.872L211.12 246.97ZM211.02 243.63L210.827 243.577L210.827 243.579L211.02 243.63ZM212.98 240.23L213.113 240.379L213.114 240.379L212.98 240.23ZM218.75 240.21V240.41H219.085L218.926 240.115L218.75 240.21ZM214.22 241.11L214.368 241.245L214.372 241.24L214.22 241.11ZM213.04 243.63L213.233 243.684L213.234 243.679L213.04 243.63ZM212.86 246.1L213.05 246.038L213.047 246.031L212.86 246.1ZM215.63 246.07L215.783 246.199L215.784 246.197L215.63 246.07ZM218.561 240.299C218.94 241.056 218.971 242.109 218.597 243.498L218.983 243.602C219.369 242.171 219.36 241.004 218.919 240.121L218.561 240.299ZM218.597 243.498C218.204 244.963 217.58 246.074 216.727 246.83L216.993 247.13C217.92 246.306 218.576 245.117 218.983 243.602L218.597 243.498ZM216.725 246.832C215.864 247.617 214.843 248 213.62 248V248.4C214.937 248.4 216.056 247.983 216.995 247.128L216.725 246.832ZM213.62 248C213.005 248 212.523 247.901 212.148 247.714C211.776 247.528 211.498 247.251 211.296 246.875L210.944 247.065C211.182 247.509 211.519 247.847 211.969 248.071C212.417 248.294 212.965 248.4 213.62 248.4V248ZM211.294 246.872C210.872 246.12 210.848 245.063 211.213 243.681L210.827 243.579C210.452 244.997 210.448 246.18 210.946 247.068L211.294 246.872ZM211.213 243.683C211.595 242.28 212.219 241.178 213.113 240.379L212.847 240.081C211.881 240.942 211.225 242.12 210.827 243.577L211.213 243.683ZM213.114 240.379C213.986 239.592 215.018 239.2 216.21 239.2V238.8C214.921 238.8 213.793 239.228 212.846 240.081L213.114 240.379ZM216.21 239.2C217.408 239.2 218.192 239.594 218.574 240.305L218.926 240.115C218.448 239.226 217.492 238.8 216.21 238.8V239.2ZM218.75 240.01H218.74V240.41H218.75V240.01ZM216.963 243.632C217.26 242.53 217.341 241.66 217.165 241.053C217.075 240.743 216.916 240.494 216.678 240.325C216.442 240.156 216.147 240.08 215.81 240.08V240.48C216.088 240.48 216.294 240.543 216.446 240.65C216.596 240.757 216.71 240.923 216.78 241.164C216.924 241.66 216.87 242.44 216.577 243.528L216.963 243.632ZM215.81 240.08C215.147 240.08 214.566 240.397 214.068 240.98L214.372 241.24C214.814 240.723 215.292 240.48 215.81 240.48V240.08ZM214.072 240.975C213.531 241.57 213.13 242.456 212.846 243.581L213.234 243.679C213.51 242.584 213.889 241.77 214.368 241.245L214.072 240.975ZM212.847 243.576C212.536 244.68 212.448 245.565 212.672 246.169L213.047 246.031C212.871 245.555 212.924 244.78 213.232 243.684L212.847 243.576ZM212.67 246.162C212.77 246.469 212.935 246.714 213.171 246.88C213.406 247.045 213.694 247.12 214.02 247.12V246.72C213.755 246.72 213.554 246.66 213.401 246.553C213.25 246.446 213.129 246.281 213.05 246.038L212.67 246.162ZM214.02 247.12C214.682 247.12 215.275 246.802 215.783 246.199L215.477 245.941C215.025 246.478 214.537 246.72 214.02 246.72V247.12ZM215.784 246.197C216.27 245.606 216.669 244.736 216.963 243.611L216.576 243.509C216.29 244.604 215.91 245.414 215.475 245.943L215.784 246.197Z" fill="#B57200" mask="url(#path-35-outside-3_8543_24824)"/>
<mask id="path-37-outside-4_8543_24824" maskUnits="userSpaceOnUse" x="218.751" y="238" width="10" height="11" fill="black">
<rect fill="white" x="218.751" y="238" width="10" height="11"/>
<path d="M227.72 240.21C228.13 241.03 228.15 242.14 227.78 243.55C227.38 245.04 226.74 246.19 225.85 246.98C224.95 247.8 223.87 248.2 222.61 248.2C221.35 248.2 220.55 247.79 220.11 246.97C219.66 246.15 219.64 245.03 220.01 243.63C220.4 242.2 221.04 241.06 221.97 240.23C222.88 239.41 223.96 239 225.2 239C226.44 239 227.31 239.41 227.74 240.21H227.72ZM225.76 243.58C226.35 241.39 226.03 240.28 224.8 240.28C224.21 240.28 223.68 240.56 223.21 241.11C222.7 241.67 222.31 242.52 222.03 243.63C221.72 244.73 221.65 245.56 221.85 246.1C222.03 246.65 222.42 246.92 223.01 246.92C223.6 246.92 224.14 246.64 224.62 246.07C225.08 245.51 225.47 244.67 225.76 243.56"/>
</mask>
<path d="M227.72 240.21C228.13 241.03 228.15 242.14 227.78 243.55C227.38 245.04 226.74 246.19 225.85 246.98C224.95 247.8 223.87 248.2 222.61 248.2C221.35 248.2 220.55 247.79 220.11 246.97C219.66 246.15 219.64 245.03 220.01 243.63C220.4 242.2 221.04 241.06 221.97 240.23C222.88 239.41 223.96 239 225.2 239C226.44 239 227.31 239.41 227.74 240.21H227.72ZM225.76 243.58C226.35 241.39 226.03 240.28 224.8 240.28C224.21 240.28 223.68 240.56 223.21 241.11C222.7 241.67 222.31 242.52 222.03 243.63C221.72 244.73 221.65 245.56 221.85 246.1C222.03 246.65 222.42 246.92 223.01 246.92C223.6 246.92 224.14 246.64 224.62 246.07C225.08 245.51 225.47 244.67 225.76 243.56" fill="#B57200"/>
<path d="M227.72 240.21V240.01H227.397L227.541 240.299L227.72 240.21ZM227.78 243.55L227.973 243.602L227.974 243.601L227.78 243.55ZM225.85 246.98L225.717 246.83L225.715 246.832L225.85 246.98ZM220.11 246.97L220.286 246.875L220.285 246.874L220.11 246.97ZM220.01 243.63L219.817 243.577L219.817 243.579L220.01 243.63ZM221.97 240.23L222.103 240.379L222.104 240.379L221.97 240.23ZM227.74 240.21V240.41H228.075L227.916 240.115L227.74 240.21ZM223.21 241.11L223.358 241.245L223.362 241.24L223.21 241.11ZM222.03 243.63L222.223 243.684L222.224 243.679L222.03 243.63ZM221.85 246.1L222.04 246.038L222.038 246.031L221.85 246.1ZM224.62 246.07L224.773 246.199L224.775 246.197L224.62 246.07ZM227.541 240.299C227.92 241.057 227.951 242.11 227.587 243.499L227.974 243.601C228.349 242.17 228.34 241.003 227.899 240.121L227.541 240.299ZM227.587 243.498C227.194 244.963 226.57 246.074 225.717 246.83L225.983 247.13C226.91 246.306 227.566 245.117 227.973 243.602L227.587 243.498ZM225.715 246.832C224.854 247.617 223.823 248 222.61 248V248.4C223.917 248.4 225.046 247.983 225.985 247.128L225.715 246.832ZM222.61 248C222.001 248 221.518 247.901 221.142 247.713C220.768 247.528 220.488 247.251 220.286 246.875L219.934 247.065C220.173 247.509 220.512 247.847 220.964 248.072C221.412 248.294 221.96 248.4 222.61 248.4V248ZM220.285 246.874C219.872 246.12 219.839 245.061 220.203 243.681L219.817 243.579C219.441 244.999 219.449 246.18 219.935 247.066L220.285 246.874ZM220.203 243.683C220.586 242.28 221.209 241.178 222.103 240.379L221.837 240.081C220.871 240.942 220.215 242.12 219.817 243.577L220.203 243.683ZM222.104 240.379C222.977 239.592 224.009 239.2 225.2 239.2V238.8C223.912 238.8 222.784 239.228 221.836 240.081L222.104 240.379ZM225.2 239.2C226.398 239.2 227.182 239.594 227.564 240.305L227.916 240.115C227.439 239.226 226.482 238.8 225.2 238.8V239.2ZM227.74 240.01H227.72V240.41H227.74V240.01ZM225.953 243.632C226.25 242.53 226.331 241.66 226.155 241.053C226.065 240.743 225.906 240.494 225.668 240.325C225.432 240.156 225.137 240.08 224.8 240.08V240.48C225.078 240.48 225.285 240.543 225.436 240.65C225.586 240.757 225.7 240.923 225.771 241.164C225.914 241.66 225.86 242.44 225.567 243.528L225.953 243.632ZM224.8 240.08C224.138 240.08 223.556 240.397 223.058 240.98L223.362 241.24C223.804 240.723 224.283 240.48 224.8 240.48V240.08ZM223.062 240.975C222.521 241.57 222.12 242.456 221.836 243.581L222.224 243.679C222.5 242.584 222.88 241.77 223.358 241.245L223.062 240.975ZM221.838 243.576C221.526 244.68 221.439 245.565 221.663 246.169L222.038 246.031C221.862 245.555 221.914 244.78 222.223 243.684L221.838 243.576ZM221.66 246.162C221.761 246.469 221.925 246.714 222.161 246.88C222.397 247.045 222.685 247.12 223.01 247.12V246.72C222.746 246.72 222.544 246.66 222.391 246.553C222.24 246.446 222.12 246.281 222.04 246.038L221.66 246.162ZM223.01 247.12C223.673 247.12 224.265 246.802 224.773 246.199L224.467 245.941C224.015 246.478 223.528 246.72 223.01 246.72V247.12ZM224.775 246.197C225.26 245.606 225.66 244.736 225.954 243.611L225.567 243.509C225.281 244.604 224.9 245.414 224.466 245.943L224.775 246.197Z" fill="#B57200" mask="url(#path-37-outside-4_8543_24824)"/>
<path d="M180.926 357.27L202.025 331.226L207.491 323.254C209.826 319.849 214.386 318.814 217.962 320.877C220.429 322.301 221.81 325.059 221.47 327.887L220.711 334.217C219.997 340.165 218.098 345.909 215.126 351.111L205.749 367.52C203.401 371.628 199.274 374.41 194.585 375.043L193.401 375.203C189.393 375.745 185.317 374.951 181.805 372.944L180.187 372.02C179.31 371.518 178.663 370.693 178.385 369.721C177.152 365.405 178.1 360.758 180.926 357.27Z" fill="#FFCABF"/>
<mask id="mask1_8543_24824" style="mask-type:alpha" maskUnits="userSpaceOnUse" x="177" y="319" width="45" height="57">
<path d="M180.926 357.27L202.025 331.226L207.491 323.254C209.826 319.849 214.386 318.814 217.962 320.877C220.429 322.3 221.81 325.059 221.47 327.887L220.711 334.217C219.997 340.165 218.098 345.909 215.126 351.111L205.749 367.519C203.401 371.628 199.274 374.409 194.585 375.043L193.401 375.203C189.393 375.745 185.317 374.951 181.805 372.944L180.187 372.019C179.31 371.518 178.663 370.693 178.385 369.721C177.152 365.404 178.1 360.758 180.926 357.27Z" fill="#FFCABF"/>
</mask>
<g mask="url(#mask1_8543_24824)">
<g filter="url(#filter3_f_8543_24824)">
<path d="M177.219 371.637L193.116 350.971C198.424 344.07 201.778 335.868 202.826 327.225L199.625 333.227L174.818 365.236L177.219 371.637Z" fill="#FCB0A0"/>
</g>
</g>
<path d="M283.141 357.27L262.042 331.226L257.035 325.024C254.56 321.959 250.222 321.151 246.81 323.12L246.452 323.326C243.954 324.767 242.557 327.559 242.9 330.422L243.356 334.217C244.069 340.165 245.968 345.909 248.941 351.111L258.317 367.519C260.665 371.628 264.792 374.409 269.482 375.043L270.665 375.203C274.674 375.745 278.749 374.951 282.261 372.944L283.879 372.019C284.757 371.518 285.404 370.693 285.681 369.721C286.915 365.404 285.967 360.758 283.141 357.27Z" fill="#FFCABF"/>
<mask id="mask2_8543_24824" style="mask-type:alpha" maskUnits="userSpaceOnUse" x="242" y="319" width="45" height="57">
<path d="M283.141 357.27L262.042 331.226L256.576 323.254C254.241 319.849 249.681 318.814 246.105 320.877C243.638 322.3 242.257 325.059 242.597 327.887L243.356 334.217C244.07 340.165 245.969 345.909 248.941 351.111L258.318 367.519C260.665 371.628 264.793 374.409 269.482 375.043L270.666 375.203C274.674 375.745 278.75 374.951 282.262 372.944L283.88 372.019C284.757 371.518 285.404 370.693 285.682 369.721C286.915 365.404 285.967 360.758 283.141 357.27Z" fill="#FFCABF"/>
</mask>
<g mask="url(#mask2_8543_24824)">
<g filter="url(#filter4_f_8543_24824)">
<path d="M286.848 371.637L270.951 350.971C265.643 344.07 262.289 335.868 261.241 327.225L264.442 333.227L289.249 365.235L286.848 371.637Z" fill="#FCB0A0"/>
</g>
</g>
<path d="M211.865 370.581L208.469 369.407C206.437 368.705 204.426 367.127 204.426 364.977L216.198 338.095L221.426 332.353C222.933 330.698 225.281 330.099 227.397 330.83L228.123 331.081C230.703 331.973 232.434 334.402 232.434 337.132V341.253C232.434 347.615 230.67 353.853 227.338 359.273L222.779 366.689C221.436 368.875 219.205 370.365 216.672 370.771L215.744 370.919C214.443 371.128 213.111 371.011 211.865 370.581Z" fill="#FFCABF"/>
<path d="M252.202 370.581L255.598 369.407C257.631 368.705 259.641 367.127 259.641 364.977L247.87 338.095L242.642 332.353C241.134 330.698 238.786 330.099 236.67 330.83L235.944 331.081C233.364 331.973 231.633 334.402 231.633 337.132V341.253C231.633 347.615 233.397 353.853 236.729 359.273L241.288 366.689C242.632 368.875 244.862 370.365 247.396 370.771L248.323 370.919C249.624 371.128 250.957 371.011 252.202 370.581Z" fill="#FFCABF"/>
<path d="M163.094 372.545L155.984 368.912C154.218 368.009 152.915 366.403 152.396 364.489C151.403 360.826 152.267 356.909 154.709 354.003L176.259 328.361C179.552 324.442 183.333 320.962 187.509 318.003L190.004 316.235C192.951 314.147 196.832 313.928 199.995 315.671L200.957 316.202C203.976 317.865 205.571 321.291 204.902 324.673C203.536 331.572 200.595 338.063 196.308 343.638L177.672 367.88C175.568 370.616 172.577 372.535 169.212 373.306C167.147 373.779 164.981 373.51 163.094 372.545Z" fill="#FFCABF"/>
<path d="M301.005 372.529L308.085 368.91C309.85 368.008 311.152 366.403 311.671 364.491C312.664 360.827 311.798 356.908 309.354 354.004L288.21 328.888C285.231 325.35 281.853 322.167 278.143 319.404L275.33 317.309C272.34 315.083 268.326 314.809 265.062 316.608L264.016 317.184C261.137 318.771 259.56 321.992 260.073 325.239C261.274 332.838 264.4 340.002 269.155 346.049L286.371 367.943C288.493 370.641 291.475 372.531 294.821 373.297C296.909 373.776 299.098 373.503 301.005 372.529Z" fill="#FFCABF"/>
<path d="M110 317.068V312.979C110 309.226 112.021 305.765 115.289 303.92L118.58 302.062C120.934 300.733 123.647 300.183 126.333 300.491L134.743 301.456C138.098 301.84 141.282 303.14 143.947 305.213L146.486 307.188C149.215 309.311 150.811 312.574 150.811 316.031V319.201C150.811 323.769 148.038 327.879 143.803 329.589L141.084 330.687C138.894 331.572 136.554 332.026 134.192 332.026H126.102C122.79 332.026 119.606 330.743 117.22 328.445L113.187 324.561C111.151 322.6 110 319.895 110 317.068Z" fill="#FFCABF"/>
<path d="M356.2 317.234V313.145C356.2 309.393 354.179 305.931 350.911 304.086L347.62 302.228C345.266 300.9 342.553 300.35 339.868 300.658L331.457 301.622C328.102 302.006 324.918 303.306 322.253 305.379L319.714 307.355C316.985 309.477 315.389 312.741 315.389 316.198V319.368C315.389 323.935 318.162 328.045 322.397 329.756L325.116 330.854C327.306 331.738 329.646 332.193 332.008 332.193H340.098C343.411 332.193 346.594 330.909 348.98 328.612L353.013 324.727C355.05 322.766 356.2 320.061 356.2 317.234Z" fill="#FFCABF"/>
<mask id="mask3_8543_24824" style="mask-type:alpha" maskUnits="userSpaceOnUse" x="151" y="314" width="55" height="60">
<path d="M163.095 372.546L155.984 368.912C154.219 368.009 152.916 366.403 152.397 364.489C151.403 360.826 152.267 356.909 154.709 354.003L176.26 328.361C179.553 324.443 183.333 320.962 187.509 318.003L190.004 316.236C192.951 314.148 196.832 313.929 199.995 315.672L200.957 316.202C203.976 317.866 205.572 321.292 204.902 324.673C203.536 331.572 200.595 338.063 196.308 343.639L177.672 367.88C175.568 370.617 172.577 372.535 169.212 373.306C167.147 373.779 164.981 373.51 163.095 372.546Z" fill="#FFCABF"/>
</mask>
<g mask="url(#mask3_8543_24824)">
<g filter="url(#filter5_f_8543_24824)">
<path d="M170.739 340.609C174.572 335.696 176.264 328.546 176.631 325.585L166.76 331.727L145.754 354.922C145.053 358.808 143.643 366.66 143.617 366.984C143.355 370.257 149.884 365.564 151.99 363.044L170.739 340.609Z" fill="#FCB0A0"/>
</g>
</g>
<mask id="mask4_8543_24824" style="mask-type:alpha" maskUnits="userSpaceOnUse" x="259" y="314" width="54" height="60">
<path d="M300.973 372.546L308.083 368.912C309.849 368.009 311.152 366.403 311.671 364.489C312.664 360.826 311.801 356.909 309.359 354.003L287.808 328.361C284.515 324.443 280.735 320.962 276.558 318.003L274.064 316.236C271.117 314.148 267.236 313.929 264.073 315.672L263.111 316.202C260.092 317.866 258.496 321.292 259.166 324.673C260.532 331.572 263.473 338.063 267.759 343.639L286.396 367.88C288.5 370.617 291.491 372.535 294.856 373.306C296.921 373.779 299.087 373.51 300.973 372.546Z" fill="#FFCABF"/>
</mask>
<g mask="url(#mask4_8543_24824)">
<g filter="url(#filter6_f_8543_24824)">
<path d="M293.328 340.609C289.496 335.696 287.804 328.546 287.437 325.585L297.308 331.727L318.313 354.922C319.015 358.808 320.425 366.66 320.451 366.984C320.712 370.257 314.184 365.564 312.078 363.044L293.328 340.609Z" fill="#FCB0A0"/>
</g>
</g>
<path d="M131.409 349.309L131.187 347.788C130.702 344.462 131.992 341.123 134.588 338.987L159.561 318.44C161.191 317.099 162.975 315.959 164.875 315.043L169.074 313.019C176.916 309.24 184.9 317.922 180.478 325.42L178.139 329.386C177.26 330.876 176.238 332.275 175.086 333.565L152.874 358.429C151.052 360.468 148.434 361.634 145.7 361.634C138.547 361.634 132.441 356.386 131.409 349.309Z" fill="#FFCABF"/>
<path d="M332.659 349.309L332.88 347.788C333.366 344.462 332.076 341.123 329.48 338.987L304.506 318.44C302.877 317.099 301.093 315.959 299.192 315.043L294.993 313.019C287.151 309.24 279.168 317.922 283.59 325.42L285.929 329.386C286.807 330.876 287.83 332.275 288.981 333.565L311.193 358.429C313.015 360.468 315.633 361.634 318.368 361.634C325.52 361.634 331.627 356.386 332.659 349.309Z" fill="#FFCABF"/>
<path d="M213.823 140.882L209.412 141.765C210.621 142.614 213.333 143.431 214.51 144.608L220 141.765C219.706 141.667 215.686 141.111 213.823 140.882Z" fill="#D79017"/>
<path d="M204.412 146.597C202.451 145.107 197.32 145.061 195 145.224C203 137.852 215 139.865 220 141.793C211.216 139.911 205.948 144.211 204.412 146.597Z" fill="#FFC84F"/>
<path d="M255.186 181.079C258.709 179.132 264.425 171.534 266.842 167.978L274.798 169.979C272.855 174.919 266.032 181.249 262.864 183.797L255.186 181.079Z" fill="#FFDD83"/>
<path d="M276.021 197.558L279.128 195.07C282.598 195.993 288.16 196.559 290.572 196.389L286.312 198.398C282.804 199.099 277.99 198.13 276.021 197.558Z" fill="#FFBA33"/>
<defs>
<filter id="filter0_f_8543_24824" x="135.105" y="292.017" width="28.8859" height="28.9586" filterUnits="userSpaceOnUse" color-interpolation-filters="sRGB">
<feFlood flood-opacity="0" result="BackgroundImageFix"/>
<feBlend mode="normal" in="SourceGraphic" in2="BackgroundImageFix" result="shape"/>
<feGaussianBlur stdDeviation="1.71158" result="effect1_foregroundBlur_8543_24824"/>
</filter>
<filter id="filter1_f_8543_24824" x="120.577" y="272.928" width="55.8463" height="79.8463" filterUnits="userSpaceOnUse" color-interpolation-filters="sRGB">
<feFlood flood-opacity="0" result="BackgroundImageFix"/>
<feBlend mode="normal" in="SourceGraphic" in2="BackgroundImageFix" result="shape"/>
<feGaussianBlur stdDeviation="1.71158" result="effect1_foregroundBlur_8543_24824"/>
</filter>
<filter id="filter2_f_8543_24824" x="290.627" y="296.595" width="47.2575" height="40.3043" filterUnits="userSpaceOnUse" color-interpolation-filters="sRGB">
<feFlood flood-opacity="0" result="BackgroundImageFix"/>
<feBlend mode="normal" in="SourceGraphic" in2="BackgroundImageFix" result="shape"/>
<feGaussianBlur stdDeviation="1.71158" result="effect1_foregroundBlur_8543_24824"/>
</filter>
<filter id="filter3_f_8543_24824" x="171.395" y="323.802" width="34.8541" height="51.2585" filterUnits="userSpaceOnUse" color-interpolation-filters="sRGB">
<feFlood flood-opacity="0" result="BackgroundImageFix"/>
<feBlend mode="normal" in="SourceGraphic" in2="BackgroundImageFix" result="shape"/>
<feGaussianBlur stdDeviation="1.71158" result="effect1_foregroundBlur_8543_24824"/>
</filter>
<filter id="filter4_f_8543_24824" x="257.818" y="323.802" width="34.8541" height="51.2585" filterUnits="userSpaceOnUse" color-interpolation-filters="sRGB">
<feFlood flood-opacity="0" result="BackgroundImageFix"/>
<feBlend mode="normal" in="SourceGraphic" in2="BackgroundImageFix" result="shape"/>
<feGaussianBlur stdDeviation="1.71158" result="effect1_foregroundBlur_8543_24824"/>
</filter>
<filter id="filter5_f_8543_24824" x="140.186" y="322.161" width="39.8678" height="49.3663" filterUnits="userSpaceOnUse" color-interpolation-filters="sRGB">
<feFlood flood-opacity="0" result="BackgroundImageFix"/>
<feBlend mode="normal" in="SourceGraphic" in2="BackgroundImageFix" result="shape"/>
<feGaussianBlur stdDeviation="1.71158" result="effect1_foregroundBlur_8543_24824"/>
</filter>
<filter id="filter6_f_8543_24824" x="284.014" y="322.161" width="39.8678" height="49.3663" filterUnits="userSpaceOnUse" color-interpolation-filters="sRGB">
<feFlood flood-opacity="0" result="BackgroundImageFix"/>
<feBlend mode="normal" in="SourceGraphic" in2="BackgroundImageFix" result="shape"/>
<feGaussianBlur stdDeviation="1.71158" result="effect1_foregroundBlur_8543_24824"/>
</filter>
<linearGradient id="paint0_linear_8543_24824" x1="233" y1="366.5" x2="233.22" y2="254.29" gradientUnits="userSpaceOnUse">
<stop stop-color="#B37606"/>
<stop offset="0.63" stop-color="#F7B336"/>
<stop offset="1" stop-color="#FFB734"/>
</linearGradient>
<linearGradient id="paint1_linear_8543_24824" x1="306" y1="265.35" x2="176" y2="265.351" gradientUnits="userSpaceOnUse">
<stop stop-color="#FBAA15" stop-opacity="0"/>
<stop offset="0.255208" stop-color="#FBAA15"/>
<stop offset="0.515583" stop-color="#FBAA15"/>
<stop offset="0.770833" stop-color="#FBAA15"/>
<stop offset="1" stop-color="#FBAA15" stop-opacity="0"/>
</linearGradient>
<linearGradient id="paint2_linear_8543_24824" x1="143" y1="276.351" x2="269" y2="276.351" gradientUnits="userSpaceOnUse">
<stop stop-color="#FBAA15" stop-opacity="0"/>
<stop offset="0.25" stop-color="#FBAA15"/>
<stop offset="0.510417" stop-color="#FBAA15"/>
<stop offset="0.75" stop-color="#FBAA15"/>
<stop offset="1" stop-color="#FBAA15" stop-opacity="0"/>
</linearGradient>
<linearGradient id="paint3_linear_8543_24824" x1="304" y1="286.35" x2="185" y2="286.351" gradientUnits="userSpaceOnUse">
<stop stop-color="#FBAA15" stop-opacity="0"/>
<stop offset="0.239583" stop-color="#FBAA15"/>
<stop offset="0.508903" stop-color="#FBAA15"/>
<stop offset="0.791667" stop-color="#FBAA15"/>
<stop offset="1" stop-color="#FBAA15" stop-opacity="0"/>
</linearGradient>
<linearGradient id="paint4_linear_8543_24824" x1="176" y1="307.5" x2="306" y2="307.5" gradientUnits="userSpaceOnUse">
<stop stop-color="#EE9A00" stop-opacity="0"/>
<stop offset="0.296875" stop-color="#EE9A00"/>
<stop offset="0.489583" stop-color="#EE9A00"/>
<stop offset="0.807292" stop-color="#EE9A00"/>
<stop offset="1" stop-color="#EE9A00" stop-opacity="0"/>
</linearGradient>
<linearGradient id="paint5_linear_8543_24824" x1="274" y1="297.35" x2="161.5" y2="297.35" gradientUnits="userSpaceOnUse">
<stop stop-color="#FBAA15" stop-opacity="0"/>
<stop offset="0.239583" stop-color="#FBAA15"/>
<stop offset="0.484375" stop-color="#FBAA15"/>
<stop offset="0.729167" stop-color="#FBAA15"/>
<stop offset="1" stop-color="#FBAA15" stop-opacity="0"/>
</linearGradient>
<linearGradient id="paint6_linear_8543_24824" x1="277" y1="317.299" x2="157" y2="317.299" gradientUnits="userSpaceOnUse">
<stop stop-color="#DB8E00" stop-opacity="0"/>
<stop offset="0.317708" stop-color="#DB8E00"/>
<stop offset="0.536458" stop-color="#DB8E00"/>
<stop offset="0.786458" stop-color="#DB8E00"/>
<stop offset="1" stop-color="#DB8E00" stop-opacity="0"/>
</linearGradient>
</defs>
</svg>
