<svg width="413" height="413" viewBox="0 0 413 413" fill="none" xmlns="http://www.w3.org/2000/svg">
<g clip-path="url(#clip0_1592_72510)">
<path d="M228.213 317.895V332.132L247.345 353.934L237.557 317.895H228.213Z" fill="#F7A38F"/>
<path d="M224.654 317.895H214.42L234.887 353.934L244.676 352.154L224.654 317.895Z" fill="#FCB6A8"/>
<path d="M207.716 324.254C214.476 333.336 225.575 348.062 226.879 349.04L242.006 351.264L214.421 317.895H205.967V318.96C205.967 320.869 206.577 322.723 207.716 324.254Z" fill="#FFC2B5"/>
<path d="M267.919 322.531L265.239 341.623C264.884 344.153 264.008 346.73 261.877 348.14C256.094 351.966 247.485 350.227 243.341 348.595L206.412 325.013L192.294 318.471C189.796 317.313 186.847 317.771 184.818 319.631C183.685 320.67 183.509 322.394 184.409 323.64L185.737 325.479C187.645 328.121 189.925 330.473 192.506 332.463L231.328 362.388C252.329 379.473 255.502 395.906 254.464 401.987H291.839V386.149C291.839 383.668 292.244 381.209 292.68 378.767C294.564 368.217 291.874 357.629 289.041 350.724C287.578 347.158 286.186 343.528 285.574 339.722L282.778 322.322C282.591 321.159 282.196 320.04 281.612 319.018L280.715 317.449H270.037L269.608 318.092C268.719 319.426 268.141 320.944 267.919 322.531Z" fill="#FFCABF"/>
<mask id="mask0_1592_72510" style="mask-type:alpha" maskUnits="userSpaceOnUse" x="183" y="317" width="111" height="85">
<path d="M228.213 317.895V332.132L247.345 353.934L237.557 317.895H228.213Z" fill="#F7A38F"/>
<path d="M224.654 317.895H214.42L234.887 353.934L244.676 352.154L224.654 317.895Z" fill="#FCB6A8"/>
<path d="M207.716 324.254C214.476 333.336 225.575 348.062 226.879 349.04L242.006 351.264L214.421 317.895H205.967V318.96C205.967 320.869 206.577 322.723 207.716 324.254Z" fill="#FFC2B5"/>
<path d="M267.919 322.531L265.239 341.623C264.884 344.153 264.008 346.73 261.877 348.14C256.094 351.966 247.485 350.227 243.341 348.595L206.412 325.013L192.294 318.471C189.796 317.313 186.847 317.771 184.818 319.631C183.685 320.67 183.509 322.394 184.409 323.64L185.737 325.479C187.645 328.121 189.925 330.473 192.506 332.463L231.328 362.388C252.329 379.473 255.502 395.906 254.464 401.987H291.839V386.149C291.839 383.668 292.244 381.209 292.68 378.767C294.564 368.217 291.874 357.629 289.041 350.724C287.578 347.158 286.186 343.528 285.574 339.722L282.778 322.322C282.591 321.159 282.196 320.04 281.612 319.018L280.715 317.449H270.037L269.608 318.092C268.719 319.426 268.141 320.944 267.919 322.531Z" fill="#FFCABF"/>
</mask>
<g mask="url(#mask0_1592_72510)">
<g filter="url(#filter0_f_1592_72510)">
<path d="M303 317.9H173.5L200.5 381L303 338.9V317.9Z" fill="#FF8D75" fill-opacity="0.3"/>
</g>
</g>
<path d="M350 309.44H134.012C132.149 309.44 131.298 311.765 132.721 312.968L133.517 313.64C136.766 316.387 140.883 317.894 145.137 317.894H338.875C343.13 317.894 347.247 316.387 350.496 313.64L351.292 312.968C352.715 311.765 351.864 309.44 350 309.44Z" fill="#E7E7E7"/>
<rect x="251.794" y="397.537" width="41.8237" height="8.89866" fill="white"/>
<path d="M250.015 413.554L251.795 406.436H294.063L295.843 413.554H250.015Z" fill="#5446D1"/>
<path fill-rule="evenodd" clip-rule="evenodd" d="M344.713 249.953C348.682 249.512 351.815 246.379 352.256 242.41C352.697 246.379 355.829 249.512 359.798 249.953C355.829 250.394 352.697 253.526 352.256 257.495C351.815 253.526 348.682 250.394 344.713 249.953Z" fill="white" fill-opacity="0.7"/>
<path fill-rule="evenodd" clip-rule="evenodd" d="M128.797 232.436C124.115 231.916 120.419 228.219 119.899 223.537V223.537C119.378 228.219 115.682 231.916 111 232.436C115.682 232.956 119.378 236.652 119.899 241.334C120.419 236.652 124.115 232.956 128.797 232.436V232.436Z" fill="white" fill-opacity="0.7"/>
<path fill-rule="evenodd" clip-rule="evenodd" d="M334.916 158.458C328.361 157.73 323.186 152.555 322.458 146C321.73 152.555 316.555 157.73 310 158.458C316.555 159.186 321.73 164.361 322.458 170.916C323.186 164.361 328.361 159.186 334.916 158.458Z" fill="white" fill-opacity="0.7"/>
<path d="M211.133 257.193H152.512C151 257.193 149.774 258.419 149.774 259.931V271.936C149.774 273.449 151 274.675 152.512 274.675H211.133C212.646 274.675 213.872 273.449 213.872 271.936V259.931C213.872 258.419 212.646 257.193 211.133 257.193Z" fill="#FDDF55"/>
<path d="M211.133 274.646H152.512C151 274.646 149.774 275.871 149.774 277.384V289.389C149.774 290.901 151 292.127 152.512 292.127H211.133C212.646 292.127 213.872 290.901 213.872 289.389V277.384C213.872 275.871 212.646 274.646 211.133 274.646Z" fill="#FABE3F"/>
<path d="M211.133 239.741H152.512C151 239.741 149.774 240.967 149.774 242.479V254.484C149.774 255.997 151 257.222 152.512 257.222H211.133C212.646 257.222 213.872 255.997 213.872 254.484V242.479C213.872 240.967 212.646 239.741 211.133 239.741Z" fill="#FFCD62"/>
<path d="M239.519 292.076H152.503C150.991 292.076 149.765 293.302 149.765 294.814V306.817C149.765 308.329 150.991 309.555 152.503 309.555H241.969C243.701 309.555 244.998 307.966 244.652 306.269L242.201 294.267C241.941 292.992 240.82 292.076 239.519 292.076Z" fill="#E18B11"/>
<path d="M239.519 292.076H152.503C150.991 292.076 149.765 293.302 149.765 294.814V306.817C149.765 308.329 150.991 309.555 152.503 309.555H241.969C243.701 309.555 244.998 307.966 244.652 306.269L242.201 294.267C241.941 292.992 240.82 292.076 239.519 292.076Z" fill="#FFAD00"/>
<mask id="mask1_1592_72510" style="mask-type:alpha" maskUnits="userSpaceOnUse" x="149" y="240" width="95" height="70">
<path d="M149.46 240.031L243.01 240.031V309.851H149.46V240.031Z" fill="#D9D9D9"/>
</mask>
<g mask="url(#mask1_1592_72510)">
<g filter="url(#filter1_f_1592_72510)">
<path d="M310.179 238.602C310.179 279.025 277.41 311.794 236.987 311.794C196.565 311.794 163.795 279.025 163.795 238.602C163.795 198.179 196.565 165.41 236.987 165.41C277.41 165.41 310.179 198.179 310.179 238.602Z" fill="black" fill-opacity="0.05"/>
</g>
</g>
<mask id="mask2_1592_72510" style="mask-type:alpha" maskUnits="userSpaceOnUse" x="167" y="155" width="156" height="156">
<ellipse cx="245.316" cy="232.537" rx="77.5374" ry="77.5375" fill="#FFE66D"/>
</mask>
<g mask="url(#mask2_1592_72510)">
<path d="M322.82 232.746C322.82 275.569 288.106 310.284 245.283 310.284C202.46 310.284 167.746 275.569 167.746 232.746C167.746 189.924 202.46 155.209 245.283 155.209C288.106 155.209 322.82 189.924 322.82 232.746Z" fill="#FFE980"/>
<path d="M273.938 196.813C273.938 197.429 273.808 198.007 273.547 198.548C273.267 199.108 272.912 199.592 272.502 200.003C272.073 200.413 271.569 200.712 271.01 200.935C270.413 201.178 269.798 201.29 269.126 201.29C268.473 201.29 267.858 201.178 267.298 200.935C266.701 200.712 266.198 200.413 265.787 200.003C265.377 199.592 265.041 199.108 264.799 198.548C264.538 198.007 264.407 197.429 264.407 196.813C264.407 196.198 264.538 195.62 264.799 195.06C265.041 194.538 265.377 194.053 265.787 193.643C266.198 193.232 266.701 192.897 267.298 192.654C267.858 192.43 268.473 192.3 269.126 192.3C269.798 192.3 270.413 192.43 271.01 192.654C271.569 192.897 272.073 193.232 272.502 193.643C272.912 194.053 273.267 194.538 273.547 195.06C273.808 195.62 273.938 196.198 273.938 196.813ZM271.663 196.813C271.663 196.459 271.588 196.123 271.458 195.806C271.308 195.508 271.14 195.228 270.917 194.986C270.693 194.762 270.432 194.575 270.133 194.426C269.816 194.295 269.48 194.221 269.145 194.221C268.809 194.221 268.511 194.295 268.212 194.426C267.895 194.575 267.634 194.762 267.41 194.986C267.186 195.228 267 195.508 266.888 195.806C266.739 196.123 266.683 196.459 266.683 196.813C266.683 197.186 266.739 197.522 266.888 197.821C267 198.138 267.186 198.399 267.41 198.623C267.634 198.865 267.895 199.052 268.212 199.163C268.511 199.313 268.809 199.369 269.145 199.369C269.48 199.369 269.816 199.313 270.133 199.163C270.432 199.052 270.693 198.865 270.917 198.623C271.14 198.399 271.308 198.138 271.458 197.821C271.588 197.522 271.663 197.186 271.663 196.813ZM278.582 191.572V204.088H276.363V191.572H278.582ZM279.067 207.948H267.112V202.521H269.406V206.027H279.067V207.948Z" fill="#FC843D"/>
<path d="M257.832 195.489H247.667V193.81H257.832V195.489ZM255.482 193.363H250.017V191.684H255.482V193.363ZM257.31 198.417C257.31 198.772 257.179 199.108 256.956 199.406C256.694 199.742 256.377 200.021 255.986 200.245C255.538 200.488 255.034 200.656 254.493 200.73C253.934 200.842 253.356 200.879 252.759 200.879C252.162 200.879 251.602 200.842 251.08 200.749C250.521 200.674 250.017 200.506 249.569 200.245C249.14 200.003 248.823 199.723 248.618 199.406C248.394 199.108 248.301 198.79 248.301 198.417C248.301 198.044 248.413 197.709 248.637 197.373C248.842 197.056 249.159 196.776 249.569 196.534C250.017 196.272 250.521 196.086 251.08 195.974C251.602 195.899 252.162 195.843 252.759 195.843C253.356 195.843 253.934 195.899 254.493 195.993C255.034 196.105 255.519 196.291 255.967 196.534C256.359 196.757 256.676 197.037 256.937 197.354C257.179 197.69 257.31 198.044 257.31 198.417ZM255.034 198.417C255.034 198.175 254.829 197.97 254.438 197.783C254.027 197.615 253.468 197.522 252.759 197.522C252.05 197.522 251.528 197.615 251.155 197.765C250.763 197.951 250.577 198.156 250.577 198.417C250.577 198.623 250.763 198.809 251.136 198.958C251.491 199.145 252.031 199.219 252.759 199.219C253.468 199.219 254.027 199.145 254.438 198.958C254.829 198.79 255.034 198.604 255.034 198.417ZM261.283 200.954H259.044V191.572H261.283V195.676H263.54V197.671H261.283V200.954ZM261.6 207.948H249.98V203.901H259.026V203.062H249.98V201.458H261.301V205.486H252.255V206.326H261.6V207.948Z" fill="#FC843D"/>
<path d="M237.246 204.181C235.735 204.367 234.224 204.461 232.732 204.461H229.599V192.971H236.481V194.911H231.855V202.539H233.049C234.243 202.539 235.642 202.446 237.246 202.26V204.181ZM243.848 207.948H241.648V199.331H239.876V207.389H237.693V191.908H239.876V197.336H241.648V191.572H243.848V207.948Z" fill="#FC843D"/>
<path d="M222.93 196.646H219.349C219.498 197.28 219.964 197.914 220.748 198.585C221.438 199.219 222.408 199.798 223.657 200.357L222.314 201.831C220.897 201.197 219.703 200.394 218.733 199.425C218.472 199.163 218.304 198.977 218.192 198.828C218.043 199.033 217.838 199.294 217.54 199.592C216.495 200.674 215.301 201.495 213.94 202.073L212.466 200.618C213.884 200.003 214.984 199.313 215.73 198.548C216.383 197.895 216.793 197.261 216.943 196.646H213.25V194.799H222.93V196.646ZM221.065 194.053H215.208V192.169H221.065V194.053ZM217.073 203.584V200.786H219.311V203.565C221.083 203.509 222.725 203.379 224.235 203.155V205.057C222.258 205.356 219.796 205.486 216.831 205.486H212V203.584H217.073ZM227.108 207.948H224.87V191.572H227.108V207.948Z" fill="#FC843D"/>
</g>
<path opacity="0.9" fill-rule="evenodd" clip-rule="evenodd" d="M244.888 300.728C207.125 300.728 176.512 270.115 176.512 232.352C176.512 194.59 207.125 163.977 244.888 163.977C282.651 163.977 313.263 194.59 313.263 232.352C313.263 270.115 282.651 300.728 244.888 300.728ZM244.888 301.869C206.495 301.869 175.372 270.745 175.372 232.352C175.372 193.959 206.495 162.836 244.888 162.836C283.281 162.836 314.404 193.959 314.404 232.352C314.404 270.745 283.281 301.869 244.888 301.869Z" fill="#F5C247"/>
<path d="M258.657 291.965H336.205C337.717 291.965 338.943 293.191 338.943 294.703V306.705C338.943 308.218 337.717 309.444 336.205 309.444H258.657C257.145 309.444 255.919 308.218 255.919 306.705V294.703C255.919 293.191 257.145 291.965 258.657 291.965Z" fill="#F29200"/>
<path d="M258.657 291.965H336.205C337.717 291.965 338.943 293.191 338.943 294.703V306.705C338.943 308.218 337.717 309.444 336.205 309.444H258.657C257.145 309.444 255.919 308.218 255.919 306.705V294.703C255.919 293.191 257.145 291.965 258.657 291.965Z" fill="#FABE3F"/>
<path d="M258.657 274.499H336.205C337.717 274.499 338.943 275.725 338.943 277.237V289.24C338.943 290.752 337.717 291.978 336.205 291.978H258.657C257.145 291.978 255.919 290.752 255.919 289.24V277.237C255.919 275.725 257.145 274.499 258.657 274.499Z" fill="#FF9D11"/>
<path d="M258.657 274.499H336.205C337.717 274.499 338.943 275.725 338.943 277.237V289.24C338.943 290.752 337.717 291.978 336.205 291.978H258.657C257.145 291.978 255.919 290.752 255.919 289.24V277.237C255.919 275.725 257.145 274.499 258.657 274.499Z" fill="#FFE255"/>
<path d="M258.086 221.545C263.246 221.545 267.146 223.645 269.786 227.725C272.366 231.925 273.686 237.625 273.686 244.825C273.686 252.445 272.306 258.325 269.546 262.405C266.786 266.605 262.826 268.645 257.666 268.645C252.626 268.645 248.786 266.545 246.086 262.345C243.326 258.145 242.006 252.445 242.006 245.245C242.006 237.925 243.386 232.105 246.266 227.845C249.086 223.645 253.046 221.545 258.086 221.545ZM257.906 228.085C255.506 228.085 253.646 229.525 252.326 232.345C250.886 235.225 250.226 239.545 250.286 245.245C250.226 250.885 250.886 255.145 252.266 257.905C253.586 260.725 255.506 262.105 257.906 262.105C260.366 262.105 262.226 260.665 263.546 257.785C264.806 254.905 265.466 250.645 265.466 244.945C265.466 233.725 262.946 228.085 257.906 228.085Z" fill="#FC843D"/>
<path d="M239.77 267.865H209.47V262.645L214.63 257.605C220.27 251.965 224.41 247.765 226.93 244.885C229.39 242.125 230.65 239.245 230.71 236.305C230.71 234.025 230.05 232.105 228.79 230.545C227.47 229.045 225.43 228.265 222.79 228.265C219.73 228.265 216.55 229.945 213.31 233.245L210.97 226.285C214.87 222.985 219.31 221.305 224.29 221.305C228.61 221.305 232.15 222.685 234.91 225.325C237.55 228.025 238.93 231.385 238.93 235.465C238.93 239.245 237.73 242.665 235.39 245.665C232.99 248.785 229.75 252.385 225.55 256.525L220.75 261.385H239.77V267.865Z" fill="#FC843D"/>
<path d="M290.088 250.782L281.148 267.662H278.988L287.928 250.782H290.088ZM284.248 255.022C284.248 255.622 284.128 256.182 283.908 256.702C283.668 257.242 283.388 257.722 283.028 258.122C282.648 258.522 282.208 258.842 281.688 259.062C281.168 259.302 280.608 259.422 280.028 259.422C279.448 259.422 278.908 259.302 278.408 259.062C277.888 258.842 277.428 258.522 277.068 258.122C276.708 257.722 276.408 257.242 276.208 256.702C275.968 256.182 275.868 255.622 275.868 255.022C275.868 254.402 275.968 253.822 276.208 253.282C276.408 252.762 276.708 252.302 277.068 251.902C277.428 251.502 277.888 251.162 278.408 250.922C278.908 250.682 279.448 250.562 280.028 250.562C280.608 250.562 281.168 250.682 281.688 250.922C282.208 251.162 282.648 251.502 283.028 251.902C283.388 252.302 283.668 252.762 283.908 253.282C284.128 253.822 284.248 254.402 284.248 255.022ZM281.968 255.022C281.968 254.362 281.768 253.802 281.388 253.342C280.988 252.902 280.548 252.662 280.028 252.662C279.528 252.662 279.088 252.902 278.728 253.342C278.328 253.802 278.148 254.362 278.148 255.022C278.148 255.662 278.328 256.202 278.728 256.642C279.088 257.102 279.528 257.322 280.028 257.322C280.548 257.322 280.988 257.102 281.388 256.642C281.768 256.202 281.968 255.662 281.968 255.022ZM293.308 263.462C293.308 264.062 293.188 264.642 292.968 265.162C292.728 265.702 292.448 266.182 292.088 266.582C291.708 266.982 291.268 267.282 290.748 267.502C290.228 267.742 289.668 267.862 289.108 267.862C288.508 267.862 287.968 267.742 287.468 267.502C286.948 267.282 286.488 266.982 286.128 266.582C285.768 266.182 285.488 265.702 285.288 265.162C285.048 264.642 284.948 264.062 284.948 263.462C284.948 262.862 285.048 262.282 285.288 261.742C285.488 261.222 285.768 260.762 286.128 260.362C286.488 259.962 286.948 259.622 287.468 259.382C287.968 259.142 288.508 259.022 289.108 259.022C289.668 259.022 290.228 259.142 290.748 259.382C291.268 259.622 291.708 259.962 292.088 260.362C292.448 260.762 292.728 261.222 292.968 261.742C293.188 262.282 293.308 262.862 293.308 263.462ZM291.048 263.462C291.048 262.822 290.848 262.262 290.468 261.802C290.068 261.362 289.608 261.122 289.108 261.122C288.608 261.122 288.168 261.362 287.788 261.802C287.388 262.262 287.208 262.822 287.208 263.462C287.208 264.102 287.388 264.642 287.788 265.082C288.168 265.542 288.608 265.762 289.108 265.762C289.608 265.762 290.068 265.542 290.468 265.082C290.848 264.642 291.048 264.102 291.048 263.462Z" fill="#FC843D"/>
</g>
<defs>
<filter id="filter0_f_1592_72510" x="171.5" y="315.9" width="133.5" height="67.0996" filterUnits="userSpaceOnUse" color-interpolation-filters="sRGB">
<feFlood flood-opacity="0" result="BackgroundImageFix"/>
<feBlend mode="normal" in="SourceGraphic" in2="BackgroundImageFix" result="shape"/>
<feGaussianBlur stdDeviation="1" result="effect1_foregroundBlur_1592_72510"/>
</filter>
<filter id="filter1_f_1592_72510" x="157.635" y="159.25" width="158.705" height="158.705" filterUnits="userSpaceOnUse" color-interpolation-filters="sRGB">
<feFlood flood-opacity="0" result="BackgroundImageFix"/>
<feBlend mode="normal" in="SourceGraphic" in2="BackgroundImageFix" result="shape"/>
<feGaussianBlur stdDeviation="3.0803" result="effect1_foregroundBlur_1592_72510"/>
</filter>
<clipPath id="clip0_1592_72510">
<rect width="413" height="413" fill="white"/>
</clipPath>
</defs>
</svg>
