<svg width="413" height="413" viewBox="0 0 413 413" fill="none" xmlns="http://www.w3.org/2000/svg">
<g clip-path="url(#clip0_8543_24794)">
<path d="M148.825 217.481C148.837 213.597 151.988 210.455 155.872 210.455H313.872C317.757 210.455 320.909 213.599 320.919 217.484L321.17 318.226H148.528L148.825 217.481Z" fill="#F1EFFF"/>
<path d="M133.164 363.211C132.106 365.543 133.812 368.189 136.373 368.189H333.325C335.886 368.189 337.592 365.543 336.534 363.211L321.174 329.328H148.524L133.164 363.211Z" fill="#F2F0FF"/>
<mask id="mask0_8543_24794" style="mask-type:alpha" maskUnits="userSpaceOnUse" x="132" y="329" width="205" height="40">
<path d="M133.165 363.21C132.108 365.543 133.813 368.189 136.374 368.189H333.326C335.888 368.189 337.593 365.543 336.536 363.21L321.175 329.328H148.526L133.165 363.21Z" fill="#F2F0FF"/>
</mask>
<g mask="url(#mask0_8543_24794)">
<path d="M148.526 329.328H182.88V368.189H129.147L148.526 329.328Z" fill="#C5BEEF" fill-opacity="0.12"/>
<path d="M286.821 329.328H321.175L340.113 368.189H286.821V329.328Z" fill="#C5BEEF" fill-opacity="0.12"/>
<path d="M286.821 329.328H252.467V368.189H300.915L286.821 329.328Z" fill="#F2F0FF"/>
<path d="M182.879 329.328H217.232V368.189H168.785L182.879 329.328Z" fill="#F2F0FF"/>
<path d="M217.232 329.328H252.467L261.276 368.189H208.424L217.232 329.328Z" fill="#C5BEEF" fill-opacity="0.12"/>
</g>
<mask id="mask1_8543_24794" style="mask-type:alpha" maskUnits="userSpaceOnUse" x="128" y="358" width="213" height="26">
<rect x="128.265" y="358.473" width="212.289" height="24.9819" fill="#9C8BFF"/>
</mask>
<g mask="url(#mask1_8543_24794)">
<path d="M133.164 363.211C132.106 365.543 133.812 368.189 136.373 368.189H333.325C335.886 368.189 337.592 365.543 336.534 363.211L321.174 329.328H148.524L133.164 363.211Z" fill="#7165BD"/>
</g>
<path d="M133.163 357.659C132.106 359.992 133.811 362.638 136.372 362.638H333.325C335.886 362.638 337.591 359.992 336.534 357.659L321.173 323.777H148.524L133.163 357.659Z" fill="#F2F0FF"/>
<mask id="mask2_8543_24794" style="mask-type:alpha" maskUnits="userSpaceOnUse" x="132" y="323" width="205" height="40">
<path d="M133.165 357.659C132.107 359.992 133.813 362.638 136.374 362.638H333.326C335.887 362.638 337.593 359.992 336.535 357.659L321.175 323.777H148.525L133.165 357.659Z" fill="#F2F0FF"/>
</mask>
<g mask="url(#mask2_8543_24794)">
<path d="M148.525 323.777H182.879V362.637H129.146L148.525 323.777Z" fill="#C5BEEF" fill-opacity="0.12"/>
<path d="M286.82 323.777H321.174L340.112 362.637H286.82V323.777Z" fill="#C5BEEF" fill-opacity="0.12"/>
<path d="M286.821 323.777H252.467V362.637H300.915L286.821 323.777Z" fill="#F2F0FF"/>
<path d="M182.878 323.777H217.231V362.637H168.784L182.878 323.777Z" fill="#F2F0FF"/>
<path d="M217.232 323.777H252.467L261.275 362.637H208.423L217.232 323.777Z" fill="#C5BEEF" fill-opacity="0.12"/>
</g>
<mask id="mask3_8543_24794" style="mask-type:alpha" maskUnits="userSpaceOnUse" x="128" y="352" width="213" height="26">
<rect x="128.264" y="352.922" width="212.289" height="24.9819" fill="#9C8BFF"/>
</mask>
<g mask="url(#mask3_8543_24794)">
<path d="M133.163 357.659C132.106 359.992 133.811 362.638 136.372 362.638H333.325C335.886 362.638 337.591 359.992 336.534 357.659L321.173 323.777H148.524L133.163 357.659Z" fill="#9B92D7"/>
</g>
<mask id="mask4_8543_24794" style="mask-type:alpha" maskUnits="userSpaceOnUse" x="132" y="318" width="205" height="40">
<path d="M133.165 352.108C132.107 354.441 133.813 357.087 136.374 357.087H333.326C335.887 357.087 337.593 354.441 336.535 352.108L321.175 318.226H148.525L133.165 352.108Z" fill="#F2F0FF"/>
</mask>
<g mask="url(#mask4_8543_24794)">
<path d="M148.525 318.226H182.879V357.087H129.146L148.525 318.226Z" fill="#D4CDFF"/>
<path d="M286.82 318.226H321.174L340.112 357.087H286.82V318.226Z" fill="#D4CDFF"/>
<path d="M286.821 318.226H252.467V357.087H300.915L286.821 318.226Z" fill="#E6E2FF"/>
<path d="M182.878 318.226H217.231V357.087H168.784L182.878 318.226Z" fill="#E6E2FF"/>
<path d="M217.232 318.226H252.467L261.275 357.087H208.423L217.232 318.226Z" fill="#D4CDFF"/>
</g>
<mask id="mask5_8543_24794" style="mask-type:alpha" maskUnits="userSpaceOnUse" x="128" y="343" width="213" height="30">
<rect x="128.264" y="343.208" width="212.289" height="29.1456" fill="#836DFF"/>
</mask>
<g mask="url(#mask5_8543_24794)">
<path d="M133.163 352.108C132.106 354.441 133.811 357.086 136.372 357.086H333.325C335.886 357.086 337.591 354.441 336.534 352.108L321.173 318.226H148.524L133.163 352.108Z" fill="#BFB6FF"/>
</g>
<path fill-rule="evenodd" clip-rule="evenodd" d="M251.119 261.528C249.717 261.528 248.362 261.828 247.154 262.382L247.153 262.382C245.852 262.983 244.799 263.785 243.901 264.784C243.01 265.774 242.312 266.868 241.814 268.112C241.263 269.417 241.016 270.814 241.016 272.294C241.016 273.771 241.262 275.122 241.814 276.382C242.31 277.667 243.005 278.809 243.901 279.804C244.803 280.807 245.858 281.56 247.153 282.111C248.377 282.719 249.737 282.965 251.119 282.965C252.513 282.965 253.82 282.715 255.128 282.113C256.37 281.566 257.476 280.814 258.385 279.804L258.395 279.792C259.238 278.801 259.925 277.668 260.51 276.402C260.514 276.394 260.517 276.385 260.521 276.376C261.017 275.135 261.317 273.789 261.317 272.294C261.317 270.8 261.018 269.409 260.523 268.123C260.518 268.11 260.512 268.096 260.506 268.083C259.92 266.862 259.233 265.781 258.395 264.795L258.385 264.784C257.482 263.78 256.381 262.982 255.14 262.386C255.132 262.382 255.125 262.379 255.117 262.375C253.829 261.83 252.527 261.528 251.119 261.528ZM248.505 268.799C249.271 267.863 250.167 267.434 251.119 267.434C252.065 267.434 252.968 267.859 253.837 268.81C254.603 269.751 255.032 270.905 255.032 272.294C255.032 273.683 254.603 274.787 253.841 275.678C252.971 276.633 252.067 277.059 251.119 277.059C250.167 277.059 249.271 276.63 248.505 275.694C248.499 275.687 248.494 275.68 248.488 275.674C247.692 274.794 247.301 273.699 247.301 272.294C247.301 270.887 247.693 269.739 248.496 268.81L248.505 268.799Z" fill="#5B59C1"/>
<path d="M269.255 262.001C269.055 262.001 268.872 262.112 268.779 262.288L248.229 301.116C248.14 301.282 248.146 301.483 248.243 301.645C248.341 301.807 248.515 301.905 248.704 301.905H253.676C253.875 301.905 254.058 301.795 254.152 301.619L274.702 262.791C274.79 262.624 274.785 262.424 274.687 262.262C274.59 262.1 274.415 262.001 274.226 262.001H269.255Z" fill="#5B59C1"/>
<path fill-rule="evenodd" clip-rule="evenodd" d="M271.954 280.942C270.551 280.942 269.196 281.242 267.989 281.796L267.987 281.796C266.687 282.396 265.634 283.199 264.735 284.198C263.844 285.188 263.147 286.282 262.649 287.525C262.097 288.831 261.851 290.228 261.851 291.708C261.851 293.185 262.097 294.536 262.649 295.795C263.145 297.081 263.84 298.223 264.735 299.218C265.638 300.22 266.692 300.974 267.988 301.525C269.212 302.133 270.571 302.379 271.954 302.379C273.347 302.379 274.655 302.129 275.963 301.526C277.204 300.98 278.31 300.228 279.219 299.218L279.229 299.206C280.072 298.215 280.76 297.082 281.344 295.816C281.348 295.808 281.352 295.799 281.355 295.79C281.852 294.549 282.151 293.203 282.151 291.708C282.151 290.214 281.852 288.823 281.358 287.537C281.353 287.524 281.347 287.51 281.341 287.497C280.755 286.276 280.067 285.195 279.229 284.209L279.219 284.198C278.316 283.194 277.216 282.396 275.974 281.8C275.967 281.796 275.959 281.793 275.951 281.789C274.663 281.244 273.361 280.942 271.954 280.942ZM269.34 288.213C270.105 287.277 271.002 286.848 271.954 286.848C272.9 286.848 273.803 287.273 274.671 288.224C275.437 289.165 275.866 290.319 275.866 291.708C275.866 293.097 275.437 294.201 274.675 295.092C273.806 296.047 272.901 296.473 271.954 296.473C271.002 296.473 270.105 296.044 269.34 295.108C269.334 295.101 269.328 295.094 269.322 295.087C268.526 294.208 268.135 293.113 268.135 291.708C268.135 290.301 268.528 289.153 269.33 288.224L269.34 288.213Z" fill="#5B59C1"/>
<path fill-rule="evenodd" clip-rule="evenodd" d="M201.156 236.129C200.064 236.129 199.144 236.944 199.013 238.028L195.207 269.467C195.115 270.228 195.434 270.981 196.043 271.445C196.653 271.909 197.464 272.014 198.172 271.723C200.761 270.657 203.378 270.065 206.203 270.065C211.7 270.065 215.177 271.194 217.072 272.89C219.062 274.755 220.095 277.136 220.095 280.399C220.095 283.233 219.062 285.203 217.197 286.582C214.937 288.128 212.398 288.914 209.347 288.914C205.858 288.914 201.929 287.749 197.608 285.235C197.071 284.923 196.425 284.857 195.835 285.055C195.246 285.253 194.771 285.696 194.531 286.269L190.973 294.791C190.574 295.747 190.911 296.852 191.775 297.424C196.83 300.763 202.892 302.332 209.761 302.332C217.101 302.332 223.322 300.401 228.25 296.386L228.265 296.373C233.205 292.272 235.664 286.584 235.664 279.572C235.664 271.939 232.841 265.819 227.211 261.481L227.201 261.473C222.965 258.25 217.771 256.647 211.746 256.647C211.254 256.647 210.764 256.668 210.281 256.701L211.234 249.63H231.602C232.795 249.63 233.761 248.663 233.761 247.471V238.288C233.761 237.095 232.795 236.129 231.602 236.129H201.156Z" fill="#5B59C1"/>
<path d="M157.332 223.668L310.603 223.668" stroke="#D4CDFF" stroke-width="0.880866"/>
<rect x="157.332" y="219.264" width="15.8556" height="1.76173" rx="0.440433" fill="#D4CDFF"/>
<rect x="157.332" y="216.621" width="15.8556" height="1.76173" rx="0.440433" fill="#D4CDFF"/>
<path d="M337.901 305.208L344.448 303.454L353.865 312.413L345.533 314.645L337.901 305.208Z" fill="#ACDCCB"/>
<path d="M119.183 308.701L118.908 314.163L106.101 316.38L109.278 308.36L119.183 308.701Z" fill="#D4CDFF"/>
<path d="M389.339 262.582L378.401 269.955L376.901 265.696L385.966 256.454L389.339 262.582Z" fill="#D4CDFF"/>
<path d="M269.309 191.885L265.737 188.754L295.12 155.238L298.691 158.369L269.309 191.885Z" fill="#F6C64B"/>
<ellipse cx="283.724" cy="174.882" rx="22.2859" ry="8.76821" transform="rotate(-48.7602 283.724 174.882)" fill="#F6C64B"/>
<ellipse cx="280.426" cy="171.994" rx="22.2859" ry="8.76821" transform="rotate(-48.7602 280.426 171.994)" fill="#FFE66D"/>
<path d="M113.124 226.282L114.714 224.733L129.25 239.657L127.66 241.206L113.124 226.282Z" fill="#F6C64B"/>
<ellipse cx="120.519" cy="233.622" rx="10.4166" ry="4.09832" transform="rotate(45.7545 120.519 233.622)" fill="#F6C64B"/>
<ellipse cx="121.983" cy="232.193" rx="10.4166" ry="4.09832" transform="rotate(45.7545 121.983 232.193)" fill="#FFE66D"/>
<path d="M304.805 295.943L303.183 292.389L336.534 277.164L338.157 280.718L304.805 295.943Z" fill="#F6C64B"/>
<ellipse cx="321.351" cy="288.053" rx="18.3312" ry="7.21226" transform="rotate(-24.536 321.351 288.053)" fill="#F6C64B"/>
<ellipse cx="319.856" cy="284.775" rx="18.3312" ry="7.21226" transform="rotate(-24.536 319.856 284.775)" fill="#FFE66D"/>
<path d="M348.274 211.075L344.362 207.754L348.731 194.656L354.636 201.663L348.274 211.075Z" fill="#ACDCCB"/>
<path d="M69.5143 259.403L77.0294 251.957L92.2635 260.005L87.8502 265.097L69.5143 259.403Z" fill="#34CC96"/>
</g>
<defs>
<clipPath id="clip0_8543_24794">
<rect width="413" height="413" fill="white"/>
</clipPath>
</defs>
</svg>
