<svg width="413" height="413" viewBox="0 0 413 413" fill="none" xmlns="http://www.w3.org/2000/svg">
<path d="M338.368 247.908L348.441 235.972C348.793 235.555 349.448 235.592 349.75 236.047L353.799 242.137C354.104 242.595 353.88 243.217 353.354 243.376L338.368 247.908Z" fill="url(#paint0_linear_8543_24834)"/>
<path d="M338.368 247.908L348.441 235.972C348.793 235.555 349.448 235.592 349.75 236.047L353.799 242.137C354.104 242.595 353.88 243.217 353.354 243.376L338.368 247.908Z" fill="white" fill-opacity="0.2"/>
<path d="M335.796 254.066L346.715 251.943C347.271 251.834 347.767 252.31 347.682 252.871L346.815 258.587C346.731 259.143 346.124 259.451 345.625 259.191L335.796 254.066Z" fill="url(#paint1_linear_8543_24834)"/>
<path d="M335.796 254.066L346.715 251.943C347.271 251.834 347.767 252.31 347.682 252.871L346.815 258.587C346.731 259.143 346.124 259.451 345.625 259.191L335.796 254.066Z" fill="white" fill-opacity="0.2"/>
<path d="M200.275 192.555L204.482 187.77C204.839 187.364 205.484 187.406 205.785 187.856L212.641 198.109L200.62 193.874C200.07 193.68 199.89 192.992 200.275 192.555Z" fill="url(#paint2_linear_8543_24834)"/>
<path d="M200.275 192.555L204.482 187.77C204.839 187.364 205.484 187.406 205.785 187.856L212.641 198.109L200.62 193.874C200.07 193.68 199.89 192.992 200.275 192.555Z" fill="white" fill-opacity="0.2"/>
<path d="M291.992 159.143L254.989 141.424C252.997 140.47 250.608 141.312 249.654 143.304L224.641 195.541L258.542 211.774L271.13 211.973L293.873 164.478C294.827 162.486 293.985 160.097 291.992 159.143Z" fill="url(#paint3_linear_8543_24834)"/>
<path d="M291.992 159.143L254.989 141.424C252.997 140.47 250.608 141.312 249.654 143.304L224.641 195.541L258.542 211.774L271.13 211.973L293.873 164.478C294.827 162.486 293.985 160.097 291.992 159.143Z" fill="white" fill-opacity="0.2"/>
<path d="M289.503 210.924L323.665 139.955C324.627 137.958 327.029 137.123 329.022 138.095L365.532 155.892C367.511 156.857 368.338 159.24 367.383 161.223L332.181 234.327L324.504 226.036L310.164 223.363L289.503 210.924Z" fill="url(#paint4_linear_8543_24834)"/>
<path d="M289.503 210.924L323.665 139.955C324.627 137.958 327.029 137.123 329.022 138.095L365.532 155.892C367.511 156.857 368.338 159.24 367.383 161.223L332.181 234.327L324.504 226.036L310.164 223.363L289.503 210.924Z" fill="white" fill-opacity="0.2"/>
<path d="M116 360.467H362V362.467H116V360.467Z" fill="url(#paint5_linear_8543_24834)" fill-opacity="0.5"/>
<path d="M214.18 276.428C214.18 274.219 215.971 272.428 218.18 272.428H259.557C261.766 272.428 263.557 274.219 263.557 276.428V360.484H214.18V276.428Z" fill="url(#paint6_linear_8543_24834)"/>
<path fill-rule="evenodd" clip-rule="evenodd" d="M241.86 305.628L241.598 305.707L241.862 305.636L243.886 313.115L245.973 305.418L245.973 305.417C246.134 304.803 246.491 304.375 246.944 304.121C247.414 303.857 247.989 303.788 248.569 303.914C249.183 304.043 249.637 304.369 249.908 304.815C250.177 305.259 250.26 305.817 250.103 306.43L249.838 306.363L250.101 306.439L248.967 310.353L251.09 310.369C251.661 310.374 252.177 310.608 252.548 310.982C252.92 311.357 253.148 311.873 253.144 312.442C253.14 313.01 252.904 313.523 252.526 313.892C252.149 314.261 251.63 314.488 251.059 314.483L247.778 314.458L246.338 319.431L246.337 319.432C246.163 320.045 245.847 320.487 245.465 320.793C245.007 321.159 244.458 321.321 243.928 321.332L243.92 321.332C243.349 321.329 242.788 321.178 242.322 320.824C241.919 320.519 241.59 320.07 241.409 319.438L241.671 319.362L241.407 319.431L239.329 311.492L237.053 319.362C236.875 319.992 236.541 320.442 236.139 320.748C235.658 321.115 235.082 321.267 234.541 321.263C234.002 321.259 233.448 321.107 232.985 320.754C232.59 320.453 232.263 320.011 232.082 319.393L232.344 319.316L232.08 319.387L230.714 314.33L227.296 314.305C226.725 314.301 226.209 314.067 225.838 313.692C225.466 313.318 225.238 312.801 225.242 312.233C225.246 311.664 225.482 311.151 225.86 310.782C226.237 310.413 226.756 310.187 227.327 310.191L229.601 310.208L228.594 306.481C228.419 305.844 228.496 305.28 228.751 304.825C229.021 304.345 229.487 303.995 230.097 303.827L230.107 303.825C230.713 303.682 231.31 303.681 231.809 303.904C232.289 304.119 232.68 304.521 232.874 305.192L232.611 305.268L232.877 305.203L234.797 313.024L236.911 305.687C237.091 305.053 237.422 304.601 237.825 304.294C238.301 303.932 238.872 303.78 239.425 303.784C239.95 303.788 240.499 303.94 240.96 304.29C241.352 304.587 241.677 305.022 241.86 305.628Z" fill="#E76C25"/>
<path d="M147.8 276.428C147.8 274.219 149.591 272.428 151.8 272.428H193.177C195.386 272.428 197.177 274.219 197.177 276.428V360.484H147.8V276.428Z" fill="url(#paint7_linear_8543_24834)"/>
<path fill-rule="evenodd" clip-rule="evenodd" d="M175.479 305.628L175.217 305.707L175.481 305.636L177.505 313.115L179.593 305.418L179.593 305.417C179.754 304.803 180.111 304.375 180.564 304.121C181.034 303.857 181.608 303.788 182.188 303.914C182.802 304.043 183.257 304.369 183.528 304.815C183.797 305.259 183.88 305.817 183.723 306.43L183.458 306.363L183.721 306.439L182.587 310.353L184.71 310.369C185.28 310.374 185.796 310.608 186.168 310.982C186.539 311.357 186.768 311.873 186.764 312.442C186.759 313.01 186.523 313.523 186.146 313.892C185.769 314.261 185.25 314.488 184.679 314.483L181.398 314.458L179.957 319.431L179.957 319.432C179.783 320.045 179.467 320.487 179.084 320.793C178.626 321.159 178.077 321.321 177.547 321.332L177.54 321.332C176.968 321.329 176.408 321.178 175.941 320.824C175.538 320.519 175.21 320.07 175.029 319.438L175.291 319.362L175.027 319.431L172.948 311.492L170.673 319.362C170.494 319.992 170.161 320.442 169.759 320.748C169.277 321.115 168.701 321.267 168.16 321.263C167.622 321.259 167.068 321.107 166.604 320.754C166.209 320.453 165.883 320.011 165.702 319.393L165.964 319.316L165.7 319.387L164.334 314.33L160.916 314.305C160.345 314.301 159.829 314.067 159.457 313.692C159.086 313.318 158.857 312.801 158.862 312.233C158.866 311.664 159.102 311.151 159.479 310.782C159.856 310.413 160.376 310.187 160.947 310.191L163.22 310.208L162.214 306.481C162.039 305.844 162.115 305.28 162.371 304.825C162.64 304.345 163.106 303.995 163.717 303.827L163.726 303.825C164.332 303.682 164.93 303.681 165.428 303.904C165.909 304.119 166.3 304.521 166.494 305.192L166.231 305.268L166.496 305.203L168.417 313.024L170.531 305.687C170.71 305.053 171.042 304.601 171.445 304.294C171.92 303.932 172.491 303.78 173.044 303.784C173.57 303.788 174.118 303.94 174.58 304.29C174.971 304.587 175.297 305.022 175.479 305.628Z" fill="#E76C25"/>
<path d="M280.56 276.428C280.56 274.219 282.351 272.428 284.56 272.428H325.937C328.146 272.428 329.937 274.219 329.937 276.428V360.484H280.56V276.428Z" fill="url(#paint8_linear_8543_24834)"/>
<path fill-rule="evenodd" clip-rule="evenodd" d="M308.239 305.628L307.977 305.707L308.242 305.636L310.266 313.115L312.353 305.418L312.353 305.417C312.514 304.803 312.871 304.375 313.324 304.121C313.794 303.857 314.368 303.788 314.949 303.914C315.562 304.043 316.017 304.369 316.288 304.815C316.557 305.259 316.64 305.817 316.483 306.43L316.218 306.363L316.481 306.439L315.347 310.353L317.47 310.369C318.041 310.374 318.556 310.608 318.928 310.982C319.3 311.357 319.528 311.873 319.524 312.442C319.52 313.01 319.283 313.523 318.906 313.892C318.529 314.261 318.01 314.488 317.439 314.483L314.158 314.458L312.718 319.431L312.717 319.432C312.543 320.045 312.227 320.487 311.845 320.793C311.386 321.159 310.838 321.321 310.308 321.332L310.3 321.332C309.728 321.329 309.168 321.178 308.701 320.824C308.299 320.519 307.97 320.07 307.789 319.438L308.051 319.362L307.787 319.431L305.708 311.492L303.433 319.362C303.255 319.992 302.921 320.442 302.519 320.748C302.037 321.115 301.461 321.267 300.92 321.263C300.382 321.259 299.828 321.107 299.365 320.754C298.969 320.453 298.643 320.011 298.462 319.393L298.724 319.316L298.46 319.387L297.094 314.33L293.676 314.305C293.105 314.301 292.589 314.067 292.218 313.692C291.846 313.318 291.618 312.801 291.622 312.233C291.626 311.664 291.862 311.151 292.24 310.782C292.617 310.413 293.136 310.187 293.707 310.191L295.981 310.208L294.974 306.481C294.799 305.844 294.876 305.28 295.131 304.825C295.401 304.345 295.867 303.995 296.477 303.827L296.487 303.825C297.092 303.682 297.69 303.681 298.188 303.904C298.669 304.119 299.06 304.521 299.254 305.192L298.991 305.268L299.257 305.203L301.177 313.024L303.291 305.687C303.471 305.053 303.802 304.601 304.205 304.294C304.681 303.932 305.252 303.78 305.804 303.784C306.33 303.788 306.879 303.94 307.34 304.29C307.732 304.587 308.057 305.022 308.239 305.628Z" fill="#E76C25"/>
<path d="M254.597 236.723C256.233 237.408 256.233 239.727 254.597 240.412L225.446 252.624C223.973 253.241 222.407 251.967 222.71 250.399L224.926 238.948C224.975 238.697 224.975 238.438 224.926 238.187L222.71 226.736C222.407 225.168 223.973 223.894 225.446 224.511L254.597 236.723Z" fill="#DB5B1D"/>
<path d="M124 237C124 235.343 125.343 234 127 234H223C224.105 234 225 234.895 225 236V242C225 243.105 224.105 244 223 244H127C125.343 244 124 242.657 124 241L124 237Z" fill="#DB5B1D"/>
<defs>
<linearGradient id="paint0_linear_8543_24834" x1="348.136" y1="234.773" x2="346.033" y2="252.232" gradientUnits="userSpaceOnUse">
<stop stop-color="#FBA169"/>
<stop offset="1" stop-color="#FBA169" stop-opacity="0"/>
</linearGradient>
<linearGradient id="paint1_linear_8543_24834" x1="344.32" y1="251.947" x2="342.927" y2="264.464" gradientUnits="userSpaceOnUse">
<stop stop-color="#FBA169"/>
<stop offset="1" stop-color="#FBA169" stop-opacity="0"/>
</linearGradient>
<linearGradient id="paint2_linear_8543_24834" x1="211.523" y1="194.449" x2="195.368" y2="195.865" gradientUnits="userSpaceOnUse">
<stop stop-color="#FBA169"/>
<stop offset="1" stop-color="#FBA169" stop-opacity="0"/>
</linearGradient>
<linearGradient id="paint3_linear_8543_24834" x1="284.237" y1="152.039" x2="208.638" y2="203.15" gradientUnits="userSpaceOnUse">
<stop stop-color="#FBA169"/>
<stop offset="1" stop-color="#FBA169" stop-opacity="0"/>
</linearGradient>
<linearGradient id="paint4_linear_8543_24834" x1="358.679" y1="147.876" x2="256.195" y2="196.054" gradientUnits="userSpaceOnUse">
<stop stop-color="#FBA169"/>
<stop offset="1" stop-color="#FBA169" stop-opacity="0"/>
</linearGradient>
<linearGradient id="paint5_linear_8543_24834" x1="357" y1="361.068" x2="119" y2="361.068" gradientUnits="userSpaceOnUse">
<stop offset="0.015625" stop-color="#D45900" stop-opacity="0"/>
<stop offset="0.132407" stop-color="#D45900" stop-opacity="0.8"/>
<stop offset="0.515625" stop-color="#D45900"/>
<stop offset="0.85901" stop-color="#D45900" stop-opacity="0.8"/>
<stop offset="1" stop-color="#D45900" stop-opacity="0"/>
</linearGradient>
<linearGradient id="paint6_linear_8543_24834" x1="238.869" y1="272.428" x2="238.869" y2="394.084" gradientUnits="userSpaceOnUse">
<stop stop-color="#FFF1EB"/>
<stop offset="1" stop-color="#F28660" stop-opacity="0"/>
</linearGradient>
<linearGradient id="paint7_linear_8543_24834" x1="172.488" y1="272.428" x2="172.488" y2="394.084" gradientUnits="userSpaceOnUse">
<stop stop-color="#FFF1EB"/>
<stop offset="1" stop-color="#F28660" stop-opacity="0"/>
</linearGradient>
<linearGradient id="paint8_linear_8543_24834" x1="305.249" y1="272.428" x2="305.249" y2="394.084" gradientUnits="userSpaceOnUse">
<stop stop-color="#FFF1EB"/>
<stop offset="1" stop-color="#F28660" stop-opacity="0"/>
</linearGradient>
</defs>
</svg>
