<svg xmlns="http://www.w3.org/2000/svg" fill="none" viewBox="0 0 32 32" width="44" height="44" aria-hidden="true"><path fill="#C64700" d="M5 12.018a2 2 0 0 1 .824-1.617l9-6.545a2 2 0 0 1 2.352 0l9 6.545A2 2 0 0 1 27 12.018V24a4 4 0 0 1-4 4H9a4 4 0 0 1-4-4V12.018Z"></path><path fill="#D2DCE9" d="M8 9a3 3 0 0 1 3-3h10a3 3 0 0 1 3 3v14a3 3 0 0 1-3 3H11a3 3 0 0 1-3-3V9Z"></path><path fill="#AEBED3" d="M12 10a1 1 0 1 0 0 2h5a1 1 0 1 0 0-2h-5ZM12 14a1 1 0 1 0 0 2h8a1 1 0 1 0 0-2h-8Z"></path><path fill="#FF8F4C" d="m5 13 11 7 11-7v11a4 4 0 0 1-4 4H9a4 4 0 0 1-4-4V13Z"></path></svg>