<svg width="108" height="32" viewBox="0 0 108 32" fill="none" xmlns="http://www.w3.org/2000/svg">
<path d="M21.1024 14.8158C21.0771 12.0088 23.4014 10.6432 23.5076 10.5796C22.1913 8.661 20.1511 8.39885 19.4341 8.37795C17.7206 8.19767 16.0584 9.40302 15.1855 9.40302C14.2952 9.40302 12.951 8.39537 11.5023 8.42498C9.63802 8.45372 7.89397 9.53279 6.93744 11.2084C4.96341 14.6251 6.43566 19.6459 8.32693 22.4076C9.27301 23.7611 10.3785 25.2704 11.8255 25.2172C13.2411 25.1598 13.7699 24.3158 15.4782 24.3158C17.1709 24.3158 17.6674 25.2172 19.1432 25.1833C20.6625 25.1598 21.619 23.8246 22.532 22.4599C23.6253 20.9105 24.0643 19.3829 24.0817 19.3045C24.0469 19.2923 21.132 18.1793 21.1024 14.8158ZM18.3147 6.5612C19.0761 5.60928 19.597 4.31422 19.4524 3C18.3504 3.04877 16.9723 3.76206 16.1786 4.69307C15.4765 5.51348 14.8493 6.85819 15.0113 8.12277C16.2492 8.21508 17.5202 7.49831 18.3147 6.5612Z" fill="#222222"/>
<path d="M41.6067 25.0228H39.6284L38.5446 21.6184H34.7778L33.7455 25.0228H31.8193L35.5522 13.4326H37.8573L41.6067 25.0228ZM38.218 20.19L37.2379 17.1636C37.1342 16.8544 36.9391 16.1263 36.6534 14.9802H36.6185C36.5035 15.4731 36.3197 16.2012 36.0679 17.1636L35.1045 20.19H38.218ZM51.1877 20.7413C51.1877 22.1627 50.8018 23.2862 50.0291 24.1109C49.3374 24.8451 48.4775 25.2118 47.4522 25.2118C46.3449 25.2118 45.5487 24.8173 45.0652 24.0265V28.4116H43.2079V19.4123C43.2079 18.5196 43.1844 17.6043 43.1391 16.6654H44.7725L44.8762 17.9901H44.911C45.5304 16.992 46.4704 16.493 47.7318 16.493C48.718 16.493 49.5412 16.8823 50.1998 17.6618C50.8575 18.443 51.1877 19.4689 51.1877 20.7413ZM49.2955 20.8093C49.2955 19.9958 49.1126 19.3252 48.745 18.7966C48.3434 18.247 47.8041 17.9718 47.1281 17.9718C46.6699 17.9718 46.2535 18.1251 45.8815 18.4273C45.5086 18.7321 45.2647 19.1301 45.1506 19.6231C45.0997 19.8074 45.0707 19.9972 45.0643 20.1883V21.5827C45.0643 22.1897 45.2508 22.7027 45.6236 23.1224C45.9965 23.5405 46.4808 23.7504 47.0767 23.7504C47.7763 23.7504 48.3207 23.4795 48.7101 22.9422C49.1004 22.4031 49.2955 21.6924 49.2955 20.8093ZM60.8026 20.7413C60.8026 22.1627 60.4167 23.2862 59.644 24.1109C58.9514 24.8451 58.0925 25.2118 57.0662 25.2118C55.959 25.2118 55.1628 24.8173 54.6793 24.0265V28.4116H52.822V19.4123C52.822 18.5196 52.7984 17.6043 52.7531 16.6654H54.3866L54.4902 17.9901H54.5251C55.1436 16.992 56.0836 16.493 57.3459 16.493C58.3311 16.493 59.1544 16.8823 59.8147 17.6618C60.4716 18.443 60.8026 19.4689 60.8026 20.7413ZM58.9096 20.8093C58.9096 19.9958 58.7258 19.3252 58.3581 18.7966C57.9565 18.247 57.419 17.9718 56.743 17.9718C56.2848 17.9718 55.8684 18.1251 55.4947 18.4273C55.1218 18.7321 54.8788 19.1301 54.7646 19.6231C54.708 19.853 54.6775 20.0402 54.6775 20.1883V21.5827C54.6775 22.1897 54.8648 22.7027 55.2359 23.1224C55.6088 23.5396 56.0932 23.7504 56.6908 23.7504C57.3912 23.7504 57.9356 23.4795 58.3242 22.9422C58.7145 22.4031 58.9096 21.6924 58.9096 20.8093ZM71.5526 21.7716C71.5526 22.7584 71.2077 23.5605 70.5221 24.1797C69.7676 24.8556 68.7144 25.1944 67.3641 25.1944C66.1166 25.1944 65.1166 24.954 64.3621 24.4724L64.7916 22.9247C65.6061 23.4072 66.5008 23.6476 67.4748 23.6476C68.1752 23.6476 68.7196 23.4891 69.1082 23.1747C69.4976 22.8594 69.6945 22.4379 69.6945 21.9119C69.6945 21.4407 69.5316 21.0462 69.2118 20.7248C68.8904 20.4043 68.359 20.1056 67.6124 19.8312C65.5826 19.0744 64.5669 17.9675 64.5669 16.5113C64.5669 15.5602 64.9258 14.7816 65.6419 14.1728C66.3579 13.5649 67.3075 13.261 68.4888 13.261C69.5438 13.261 70.4228 13.4448 71.1205 13.8114L70.6545 15.3251C69.9976 14.9697 69.2563 14.7921 68.4269 14.7921C67.7718 14.7921 67.2579 14.9532 66.8902 15.2737C66.581 15.5602 66.4242 15.9095 66.4242 16.324C66.4242 16.7813 66.6027 17.161 66.9582 17.4588C67.2666 17.7332 67.8293 18.0319 68.643 18.3524C69.6413 18.7548 70.3748 19.2233 70.8444 19.7616C71.3174 20.2998 71.5526 20.9713 71.5526 21.7716ZM77.7091 18.0589H75.6619V22.1165C75.6619 23.1486 76.0225 23.6633 76.7456 23.6633C77.0775 23.6633 77.3528 23.6354 77.5706 23.5771L77.622 24.9871C77.2561 25.1238 76.7743 25.1926 76.1776 25.1926C75.4441 25.1926 74.8709 24.9688 74.4571 24.5211C74.045 24.0735 73.8377 23.3236 73.8377 22.2681V18.0554H72.6181V16.6619H73.8377V15.1317L75.6619 14.5813V16.6619H77.7091V18.0589ZM86.9276 20.7753C86.9276 22.0599 86.56 23.1146 85.8265 23.9394C85.059 24.7885 84.038 25.2118 82.7653 25.2118C81.5369 25.2118 80.5604 24.8051 79.8321 23.9925C79.1038 23.1782 78.7397 22.1522 78.7397 20.9147C78.7397 19.6196 79.116 18.5588 79.8661 17.734C80.6179 16.9084 81.6301 16.4956 82.9029 16.4956C84.1295 16.4956 85.1147 16.9032 85.8605 17.7166C86.5731 18.5057 86.9276 19.5247 86.9276 20.7753ZM85.0024 20.818C85.0024 20.0524 84.8369 19.3958 84.5049 18.8462C84.1155 18.1826 83.558 17.8507 82.8358 17.8507C82.0918 17.8507 81.5212 18.1826 81.1327 18.8462C80.7999 19.3958 80.6344 20.0638 80.6344 20.8528C80.6344 21.6192 80.7999 22.2776 81.1327 22.8255C81.5343 23.4891 82.0945 23.8209 82.8201 23.8209C83.5301 23.8209 84.0868 23.4821 84.4893 22.8089C84.8308 22.2463 85.0024 21.5853 85.0024 20.818ZM92.9673 18.2984C92.7742 18.2635 92.5782 18.2463 92.3819 18.247C91.7285 18.247 91.2233 18.4926 90.8678 18.9873C90.5595 19.4228 90.4044 19.9732 90.4044 20.6377V25.0228H88.5471V19.2973C88.5487 18.42 88.5307 17.5428 88.4931 16.6663H90.1108L90.1788 18.2653H90.2302C90.427 17.7158 90.7354 17.2725 91.1588 16.9406C91.5463 16.6507 92.0172 16.4937 92.5013 16.493C92.6729 16.493 92.8279 16.5052 92.9656 16.5269L92.9673 18.2984ZM101.274 20.4487C101.278 20.731 101.256 21.013 101.206 21.2909H95.6339C95.6548 22.1165 95.9249 22.7488 96.4424 23.1843C96.9119 23.5727 97.5191 23.7678 98.2648 23.7678C99.0898 23.7678 99.8425 23.6372 100.519 23.3733L100.81 24.6614C100.019 25.0062 99.0854 25.1778 98.0078 25.1778C96.7115 25.1778 95.694 24.7964 94.9536 24.0352C94.2148 23.2731 93.8446 22.2489 93.8446 20.966C93.8446 19.7067 94.1887 18.6572 94.8778 17.8203C95.5991 16.9267 96.5739 16.4799 97.8005 16.4799C99.0053 16.4799 99.9174 16.9267 100.537 17.8203C101.027 18.5283 101.274 19.4062 101.274 20.4487ZM99.5027 19.9671C99.5158 19.4158 99.3938 18.9411 99.1421 18.5396C98.8206 18.0223 98.3258 17.7645 97.6628 17.7645C97.0556 17.7645 96.5608 18.0162 96.1845 18.5214C95.8752 18.9229 95.6914 19.4053 95.6348 19.9653L99.5027 19.9671Z" fill="#222222"/>
<path d="M34.2422 9.3347C33.7256 9.3347 33.2787 9.30944 32.9067 9.26677V3.66325C33.427 3.5829 33.9527 3.5433 34.4792 3.5448C36.6091 3.5448 37.5901 4.59252 37.5901 6.3004C37.5901 8.27043 36.4314 9.3347 34.2422 9.3347ZM34.5541 4.26332C34.2666 4.26332 34.0218 4.28073 33.8188 4.32254V8.58222C33.9286 8.59964 34.1394 8.60748 34.4356 8.60748C35.8312 8.60748 36.6257 7.8132 36.6257 6.32566C36.6257 4.99924 35.907 4.26332 34.5541 4.26332ZM40.6469 9.37737C39.4465 9.37737 38.6685 8.48119 38.6685 7.26451C38.6685 5.99645 39.463 5.09243 40.7149 5.09243C41.8979 5.09243 42.6933 5.94594 42.6933 7.19745C42.6933 8.48119 41.8735 9.37737 40.6469 9.37737ZM40.6818 5.75956C40.0223 5.75956 39.5998 6.37617 39.5998 7.23839C39.5998 8.08405 40.031 8.70066 40.6731 8.70066C41.3151 8.70066 41.7463 8.04138 41.7463 7.22097C41.7463 6.38488 41.3238 5.75956 40.6818 5.75956ZM49.5388 5.17691L48.2538 9.28418H47.4167L46.8844 7.50053C46.752 7.06424 46.6418 6.62154 46.5542 6.17412H46.5368C46.4697 6.62177 46.3425 7.0703 46.2075 7.50053L45.6413 9.28418H44.7954L43.5862 5.17691H44.5244L44.9896 7.12952C45.0994 7.59459 45.1917 8.03354 45.2684 8.4481H45.2858C45.3529 8.10234 45.4627 7.67036 45.6238 7.13823L46.2075 5.17778H46.9515L47.5099 7.09643C47.6449 7.5615 47.7547 8.01786 47.84 8.44897H47.8644C47.9237 8.02657 48.0169 7.57805 48.1432 7.09643L48.6424 5.17778L49.5388 5.17691ZM54.2692 9.28418H53.3562V6.92573C53.3562 6.19938 53.0774 5.83533 52.5277 5.83533C51.9867 5.83533 51.6148 6.3004 51.6148 6.84125V9.28418H50.7018V6.35092C50.7018 5.98774 50.6931 5.59844 50.6678 5.17604H51.471L51.5137 5.81007H51.539C51.7846 5.37113 52.2829 5.09243 52.8413 5.09243C53.7038 5.09243 54.27 5.75172 54.27 6.8247L54.2692 9.28418ZM56.7868 9.28418H55.8729V3.29224H56.7868V9.28418ZM60.1155 9.37737C58.9159 9.37737 58.1371 8.48119 58.1371 7.26451C58.1371 5.99645 58.9316 5.09243 60.1825 5.09243C61.3664 5.09243 62.1609 5.94594 62.1609 7.19745C62.1618 8.48119 61.3412 9.37737 60.1155 9.37737ZM60.1494 5.75956C59.49 5.75956 59.0675 6.37617 59.0675 7.23839C59.0675 8.08405 59.4996 8.70066 60.1399 8.70066C60.7828 8.70066 61.2131 8.04138 61.2131 7.22097C61.214 6.38488 60.7923 5.75956 60.1494 5.75956ZM65.7605 9.28418L65.6943 8.81127H65.6699C65.3912 9.19187 64.9843 9.37737 64.4686 9.37737C63.7325 9.37737 63.2098 8.86179 63.2098 8.16853C63.2098 7.15478 64.0888 6.63048 65.6107 6.63048V6.55471C65.6107 6.01387 65.3241 5.74301 64.7578 5.74301C64.3528 5.74301 63.9973 5.84491 63.6846 6.04784L63.499 5.44777C63.8788 5.21088 64.3528 5.09243 64.9094 5.09243C65.9827 5.09243 66.5245 5.65853 66.5245 6.7916V8.3044C66.5245 8.71895 66.5428 9.04033 66.5838 9.28505L65.7605 9.28418ZM65.6351 7.23839C64.6211 7.23839 64.1123 7.48399 64.1123 8.06663C64.1123 8.49774 64.3745 8.7085 64.7387 8.7085C65.203 8.7085 65.6351 8.35404 65.6351 7.87242V7.23839ZM70.9578 9.28418L70.9151 8.6249H70.8899C70.6277 9.12306 70.1869 9.37737 69.571 9.37737C68.5805 9.37737 67.847 8.50645 67.847 7.28106C67.847 5.99645 68.6075 5.09156 69.6459 5.09156C70.1956 5.09156 70.585 5.27707 70.8045 5.64982H70.8228V3.29224H71.7366V8.17724C71.7366 8.57438 71.7462 8.94627 71.7706 9.28418H70.9578ZM70.8228 6.86737C70.8228 6.29256 70.4421 5.80224 69.8611 5.80224C69.1842 5.80224 68.7704 6.4023 68.7704 7.2471C68.7704 8.07534 69.1999 8.64231 69.8428 8.64231C70.4169 8.64231 70.8228 8.14328 70.8228 7.55192V6.86737ZM77.5307 9.37737C76.3311 9.37737 75.5532 8.48119 75.5532 7.26451C75.5532 5.99645 76.3477 5.09243 77.5986 5.09243C78.7825 5.09243 79.577 5.94594 79.577 7.19745C79.5779 8.48119 78.7581 9.37737 77.5307 9.37737ZM77.5647 5.75956C76.9061 5.75956 76.4836 6.37617 76.4836 7.23839C76.4836 8.08405 76.9148 8.70066 77.556 8.70066C78.1989 8.70066 78.6292 8.04138 78.6292 7.22097C78.631 6.38488 78.2084 5.75956 77.5647 5.75956ZM84.4868 9.28418H83.573V6.92573C83.573 6.19938 83.2942 5.83533 82.7445 5.83533C82.2036 5.83533 81.8324 6.3004 81.8324 6.84125V9.28418H80.9186V6.35092C80.9186 5.98774 80.9099 5.59844 80.8846 5.17604H81.6878L81.7305 5.81007H81.7558C82.0006 5.37113 82.4997 5.09156 83.0573 5.09156C83.9197 5.09156 84.4868 5.75085 84.4868 6.82383V9.28418ZM90.6293 5.86146H89.6249V7.85587C89.6249 8.36362 89.8009 8.61706 90.1563 8.61706C90.3175 8.61706 90.4525 8.59964 90.5614 8.57438L90.5867 9.26764C90.4098 9.33557 90.1729 9.36953 89.8784 9.36953C89.1588 9.36953 88.7285 8.97239 88.7285 7.93251V5.86146H88.1291V5.17691H88.7285V4.42444L89.6249 4.15358V5.17604H90.6293V5.86146ZM95.4625 9.28418H94.5504V6.94314C94.5504 6.20809 94.2725 5.8362 93.7219 5.8362C93.2489 5.8362 92.8081 6.15757 92.8081 6.80815V9.28418H91.896V3.29224H92.8081V5.75956H92.8264C93.1139 5.31191 93.5303 5.09156 94.0617 5.09156C94.9311 5.09156 95.4625 5.7674 95.4625 6.84125V9.28418ZM100.414 7.45002H97.6744C97.6918 8.22775 98.2066 8.6667 98.9689 8.6667C99.374 8.6667 99.7468 8.59877 100.076 8.47248L100.218 9.10652C99.8296 9.27547 99.3722 9.35995 98.84 9.35995C97.555 9.35995 96.7945 8.54825 96.7945 7.28977C96.7945 6.03042 97.5733 5.08372 98.7372 5.08372C99.7869 5.08372 100.446 5.86146 100.446 7.03633C100.451 7.17498 100.441 7.31384 100.414 7.45002ZM99.577 6.79944C99.577 6.16541 99.2572 5.71776 98.6736 5.71776C98.1491 5.71776 97.7345 6.17412 97.6752 6.79944H99.577Z" fill="#222222"/>
</svg>
