<svg width="108" height="32" viewBox="0 0 108 32" fill="none" xmlns="http://www.w3.org/2000/svg">
<path d="M36.5547 6.87249C36.5547 7.56885 36.3806 8.17816 35.9454 8.61339C35.4232 9.13566 34.8138 9.3968 34.0304 9.3968C33.247 9.3968 32.6377 9.13566 32.1154 8.61339C31.5932 8.09112 31.332 7.4818 31.332 6.6984C31.332 5.91499 31.5932 5.30568 32.1154 4.78341C32.6377 4.26114 33.247 4 34.0304 4C34.3786 4 34.7268 4.08704 35.075 4.26114C35.4232 4.43523 35.6843 4.60932 35.8584 4.87045L35.4231 5.30568C35.075 4.87045 34.6397 4.69636 34.0304 4.69636C33.5082 4.69636 32.9859 4.87045 32.6377 5.30568C32.2025 5.65386 32.0284 6.17613 32.0284 6.78544C32.0284 7.39476 32.2025 7.91703 32.6377 8.26521C33.0729 8.61339 33.5082 8.87453 34.0304 8.87453C34.6397 8.87453 35.075 8.70044 35.5102 8.26521C35.7713 8.00407 35.9454 7.65589 35.9454 7.22067H34.0304V6.52431H36.5547V6.87249ZM40.5588 4.69636H38.2086V6.35022H40.3847V6.95953H38.2086V8.61339H40.5588V9.30975H37.5122V4.08705H40.5588V4.69636ZM43.4313 9.30975H42.7349V4.69636H41.2552V4.08705H44.9111V4.69636H43.4313V9.30975ZM47.4354 9.30975V4.08705H48.1317V9.30975H47.4354ZM51.0913 9.30975H50.3949V4.69636H48.9151V4.08705H52.484V4.69636H51.0042V9.30975H51.0913ZM59.3605 8.61339C58.8383 9.13566 58.229 9.3968 57.4456 9.3968C56.6622 9.3968 56.0528 9.13566 55.5306 8.61339C55.0083 8.09112 54.7472 7.4818 54.7472 6.6984C54.7472 5.91499 55.0083 5.30568 55.5306 4.78341C56.0528 4.26114 56.6622 4 57.4456 4C58.229 4 58.8383 4.26114 59.3605 4.78341C59.8828 5.30568 60.144 5.91499 60.144 6.6984C60.144 7.4818 59.8828 8.09112 59.3605 8.61339ZM56.0528 8.17816C56.401 8.52634 56.9233 8.78748 57.4456 8.78748C57.9678 8.78748 58.4901 8.61339 58.8383 8.17816C59.1865 7.82998 59.4476 7.30771 59.4476 6.6984C59.4476 6.08908 59.2735 5.56681 58.8383 5.21863C58.4901 4.87045 57.9678 4.60932 57.4456 4.60932C56.9233 4.60932 56.401 4.78341 56.0528 5.21863C55.7047 5.56681 55.4435 6.08908 55.4435 6.6984C55.4435 7.30771 55.6176 7.82998 56.0528 8.17816ZM61.1014 9.30975V4.08705H61.8849L64.4092 8.17816V4.08705H65.1055V9.30975H64.4092L61.7108 5.04454V9.30975H61.1014Z" fill="#262626" stroke="#262626" stroke-width="0.17409" stroke-miterlimit="10"/>
<path d="M54.5735 16.9695C52.4844 16.9695 50.8305 18.5363 50.8305 20.7125C50.8305 22.8016 52.4844 24.4554 54.5735 24.4554C56.6625 24.4554 58.3164 22.8886 58.3164 20.7125C58.3164 18.4493 56.6625 16.9695 54.5735 16.9695ZM54.5735 22.8886C53.4419 22.8886 52.4844 21.9311 52.4844 20.6254C52.4844 19.3198 53.4419 18.3623 54.5735 18.3623C55.705 18.3623 56.6625 19.2327 56.6625 20.6254C56.6625 21.9311 55.705 22.8886 54.5735 22.8886ZM46.4783 16.9695C44.3892 16.9695 42.7353 18.5363 42.7353 20.7125C42.7353 22.8016 44.3892 24.4554 46.4783 24.4554C48.5674 24.4554 50.2212 22.8886 50.2212 20.7125C50.2212 18.4493 48.5674 16.9695 46.4783 16.9695ZM46.4783 22.8886C45.3467 22.8886 44.3892 21.9311 44.3892 20.6254C44.3892 19.3198 45.3467 18.3623 46.4783 18.3623C47.6099 18.3623 48.5674 19.2327 48.5674 20.6254C48.5674 21.9311 47.6099 22.8886 46.4783 22.8886ZM36.8163 18.1011V19.6679H40.5592C40.4722 20.5384 40.124 21.2347 39.6888 21.67C39.1665 22.1922 38.296 22.8016 36.8163 22.8016C34.466 22.8016 32.7251 20.9736 32.7251 18.6234C32.7251 16.2732 34.5531 14.4452 36.8163 14.4452C38.0349 14.4452 38.9924 14.9675 39.6888 15.5768L40.8203 14.4452C39.8628 13.5748 38.6442 12.8784 36.9033 12.8784C33.7697 12.8784 31.0713 15.4898 31.0713 18.6234C31.0713 21.757 33.7697 24.3684 36.9033 24.3684C38.6442 24.3684 39.8628 23.8461 40.9074 22.7145C41.9519 21.67 42.3001 20.1902 42.3001 19.0586C42.3001 18.7104 42.3001 18.3623 42.2131 18.1011H36.8163ZM76.3347 19.3198C75.9865 18.4493 75.1161 16.9695 73.2011 16.9695C71.2861 16.9695 69.7193 18.4493 69.7193 20.7125C69.7193 22.8016 71.2861 24.4554 73.3752 24.4554C75.0291 24.4554 76.0736 23.4109 76.4218 22.8016L75.2031 21.9311C74.7679 22.5404 74.2456 22.9756 73.3752 22.9756C72.5047 22.9756 71.9825 22.6275 71.5473 21.8441L76.5088 19.755L76.3347 19.3198ZM71.2861 20.5384C71.2861 19.1457 72.4177 18.3623 73.2011 18.3623C73.8104 18.3623 74.4197 18.7104 74.5938 19.1457L71.2861 20.5384ZM67.195 24.1072H68.8489V13.2266H67.195V24.1072ZM64.5836 17.7529C64.1484 17.3177 63.4521 16.8825 62.5816 16.8825C60.7537 16.8825 59.0128 18.5363 59.0128 20.6254C59.0128 22.7145 60.6666 24.2813 62.5816 24.2813C63.4521 24.2813 64.1484 23.8461 64.4966 23.4109H64.5836V23.9331C64.5836 25.3259 63.8002 26.1093 62.5816 26.1093C61.6241 26.1093 60.9277 25.4129 60.7537 24.8036L59.3609 25.4129C59.7962 26.3704 60.8407 27.589 62.6687 27.589C64.5836 27.589 66.1505 26.4575 66.1505 23.7591V17.1436H64.5836V17.7529ZM62.6687 22.8886C61.5371 22.8886 60.5796 21.9311 60.5796 20.6254C60.5796 19.3198 61.5371 18.3623 62.6687 18.3623C63.8002 18.3623 64.6707 19.3198 64.6707 20.6254C64.6707 21.9311 63.8002 22.8886 62.6687 22.8886ZM83.9077 13.2266H79.9906V24.1072H81.6445V20.0161H83.9077C85.7356 20.0161 87.4765 18.7104 87.4765 16.6214C87.4765 14.5323 85.7356 13.2266 83.9077 13.2266ZM83.9947 18.4493H81.6445V14.7064H83.9947C85.2133 14.7064 85.9097 15.7509 85.9097 16.5343C85.8226 17.4918 85.1263 18.4493 83.9947 18.4493ZM94.0049 16.8825C92.7863 16.8825 91.5676 17.4048 91.1324 18.5363L92.6122 19.1457C92.9603 18.5363 93.4826 18.3623 94.0919 18.3623C94.9624 18.3623 95.7458 18.8845 95.8328 19.755V19.842C95.5717 19.6679 94.8753 19.4068 94.179 19.4068C92.6122 19.4068 91.0453 20.2772 91.0453 21.8441C91.0453 23.3238 92.351 24.2813 93.7437 24.2813C94.8753 24.2813 95.3976 23.7591 95.8328 23.2368H95.9199V24.1072H97.4867V19.9291C97.3126 18.0141 95.8328 16.8825 94.0049 16.8825ZM93.8308 22.8886C93.3085 22.8886 92.5251 22.6275 92.5251 21.9311C92.5251 21.0607 93.4826 20.7995 94.266 20.7995C94.9624 20.7995 95.3106 20.9736 95.7458 21.1477C95.5717 22.1922 94.7012 22.8886 93.8308 22.8886ZM102.971 17.1436L101.143 21.8441H101.056L99.1405 17.1436H97.3996L100.272 23.7591L98.6183 27.4149H100.272L104.711 17.1436H102.971ZM88.347 24.1072H90.0008V13.2266H88.347V24.1072Z" fill="#262626"/>
<path d="M4.34818 4.52246C4.08704 4.7836 4 5.21882 4 5.74109V24.9781C4 25.5003 4.17409 25.9356 4.43523 26.1967L4.52227 26.2837L15.3159 15.4901V15.3161L4.34818 4.52246Z" fill="url(#paint0_linear_3837_685932)"/>
<path d="M18.7979 19.1457L15.229 15.5768V15.3157L18.7979 11.7468L18.8849 11.8339L23.1501 14.2711C24.3687 14.9675 24.3687 16.0991 23.1501 16.7954L18.7979 19.1457Z" fill="url(#paint1_linear_3837_685932)"/>
<path d="M18.8847 19.0587L15.2288 15.4028L4.34814 26.2835C4.78337 26.7187 5.39269 26.7187 6.17609 26.3705L18.8847 19.0587Z" fill="url(#paint2_linear_3837_685932)"/>
<path d="M18.8847 11.747L6.17609 4.52222C5.39269 4.087 4.78337 4.17404 4.34814 4.60927L15.2288 15.4029L18.8847 11.747Z" fill="url(#paint3_linear_3837_685932)"/>
<path opacity="0.2" d="M18.7976 18.9717L6.17609 26.1094C5.47973 26.5446 4.87042 26.4576 4.43519 26.1094L4.34814 26.1964L4.43519 26.2835C4.87042 26.6316 5.47973 26.7187 6.17609 26.2835L18.7976 18.9717Z" fill="black"/>
<path opacity="0.12" d="M4.34818 26.1094C4.08704 25.8482 4 25.413 4 24.8907V24.9778C4 25.5001 4.17409 25.9353 4.43523 26.1964V26.1094H4.34818ZM23.1499 16.5344L18.7977 18.9717L18.8847 19.0587L23.1499 16.6215C23.7592 16.2733 24.0204 15.8381 24.0204 15.4028C24.0204 15.8381 23.6722 16.1862 23.1499 16.5344Z" fill="black"/>
<path opacity="0.25" d="M6.17613 4.60924L23.1499 14.2712C23.6722 14.6194 24.0204 14.9676 24.0204 15.4028C24.0204 14.9676 23.7592 14.5324 23.1499 14.1842L6.17613 4.52219C4.9575 3.82583 4 4.3481 4 5.74082V5.82787C4 4.52219 4.9575 3.91288 6.17613 4.60924Z" fill="white"/>
<defs>
<linearGradient id="paint0_linear_3837_685932" x1="14.2713" y1="5.57571" x2="-0.337457" y2="20.1836" gradientUnits="userSpaceOnUse">
<stop stop-color="#00A0FF"/>
<stop offset="0.007" stop-color="#00A1FF"/>
<stop offset="0.26" stop-color="#00BEFF"/>
<stop offset="0.512" stop-color="#00D2FF"/>
<stop offset="0.76" stop-color="#00DFFF"/>
<stop offset="1" stop-color="#00E3FF"/>
</linearGradient>
<linearGradient id="paint1_linear_3837_685932" x1="24.7465" y1="15.4036" x2="3.68421" y2="15.4036" gradientUnits="userSpaceOnUse">
<stop stop-color="#FFE000"/>
<stop offset="0.409" stop-color="#FFBD00"/>
<stop offset="0.775" stop-color="#FFA500"/>
<stop offset="1" stop-color="#FF9C00"/>
</linearGradient>
<linearGradient id="paint2_linear_3837_685932" x1="16.9061" y1="17.4014" x2="-2.90358" y2="37.2111" gradientUnits="userSpaceOnUse">
<stop stop-color="#FF3A44"/>
<stop offset="1" stop-color="#C31162"/>
</linearGradient>
<linearGradient id="paint3_linear_3837_685932" x1="1.64714" y1="-1.85296" x2="10.4935" y2="6.99343" gradientUnits="userSpaceOnUse">
<stop stop-color="#32A071"/>
<stop offset="0.069" stop-color="#2DA771"/>
<stop offset="0.476" stop-color="#15CF74"/>
<stop offset="0.801" stop-color="#06E775"/>
<stop offset="1" stop-color="#00F076"/>
</linearGradient>
</defs>
</svg>
