<svg xmlns="http://www.w3.org/2000/svg" width="44" height="44" fill="none" aria-hidden="true"><path fill="#FAE64C" d="M3.326 15.682c.597-6.65 5.68-11.936 12.338-12.438A84.682 84.682 0 0 1 22 3c2.235 0 4.373.097 6.336.244 6.658.502 11.74 5.789 12.338 12.438.193 2.15.326 4.349.326 6.318 0 1.969-.133 4.167-.326 6.318-.597 6.65-5.68 11.936-12.338 12.438A84.688 84.688 0 0 1 22 41c-2.235 0-4.373-.097-6.336-.244-6.658-.502-11.74-5.788-12.338-12.438C3.133 26.168 3 23.969 3 22c0-1.969.133-4.167.326-6.318Z"></path><path fill="#FEE500" d="M38 22c0 8.837-7.163 16-16 16S6 30.837 6 22 13.163 6 22 6s16 7.163 16 16Z"></path><path fill="#4F4141" fill-rule="evenodd" d="M22 13.5c-5.523 0-10 3.443-10 7.69 0 2.745 1.872 5.155 4.687 6.515-.153.515-.984 3.314-1.018 3.534 0 0-.02.166.091.23.11.062.239.013.239.013.314-.042 3.648-2.327 4.225-2.724.576.08 1.17.122 1.776.122 5.523 0 10-3.444 10-7.69 0-4.247-4.477-7.69-10-7.69Z" clip-rule="evenodd"></path></svg>