<svg width="167" height="38" viewBox="0 0 167 38" fill="none" xmlns="http://www.w3.org/2000/svg">
<g clip-path="url(#clip0_6377_296)">
<path fill-rule="evenodd" clip-rule="evenodd" d="M41.8603 21.023C41.2282 14.9028 34.2601 9.87443 26.2863 9.81697C18.3125 9.7595 12.3501 14.6729 12.9679 20.7931C13.6001 26.9134 20.5682 31.9417 28.5563 31.9992C36.5301 32.071 42.4925 27.1576 41.8603 21.023ZM15.4678 19.4858C14.9219 14.5436 20.1084 10.5784 27.0334 10.6359C33.9584 10.6933 40.0213 14.7304 40.5673 19.6725C41.1132 24.6147 35.9411 28.5799 29.0017 28.5224C22.0767 28.465 16.0138 24.4279 15.4678 19.4858Z" fill="#FBB584"/>
<path fill-rule="evenodd" clip-rule="evenodd" d="M15.2547 18.6343C10.686 23.4041 10.6141 30.7455 15.0823 35.0268C19.5505 39.3081 26.8922 38.9202 31.4609 34.1504C36.0297 29.3807 36.1015 22.0393 31.6333 17.7436C27.1651 13.4623 19.8235 13.8646 15.2547 18.6343ZM29.8087 32.1103C25.8865 36.2192 19.5793 36.5496 15.7288 32.8718C11.8784 29.1939 11.9359 22.8725 15.8725 18.7636C19.7948 14.6548 26.1163 14.3243 29.9524 18.0022C33.8028 21.6801 33.7309 28.0014 29.8087 32.1103Z" fill="#F89B6C"/>
<path fill-rule="evenodd" clip-rule="evenodd" d="M8.08526 5.90658C-0.391387 12.6158 -2.54647 22.3421 3.25788 27.6291C9.07659 32.916 20.6566 31.7523 29.1476 25.0431C37.6242 18.3338 39.7793 8.60753 33.9749 3.32057C28.1562 -1.96639 16.5619 -0.817046 8.08526 5.90658ZM15.6711 3.27747C23.8461 0.217357 31.9204 3.32057 33.7307 10.2022C35.5266 17.0839 30.3544 25.158 22.1795 28.2181C14.0045 31.2782 5.93018 28.175 4.13428 21.2933C2.33838 14.3973 7.51057 6.33758 15.6711 3.27747Z" fill="#F37321"/>
<path d="M129.763 23.8941C128.426 24.0665 127.018 24.1527 125.539 24.1527H123.297V16.524H128.814V17.6877H124.633V23.0034H125.653C126.99 23.0034 128.369 22.9316 129.763 22.7448V23.8941ZM131.774 15.5758V19.383H133.527V20.6185H131.774V26.5089H130.438V15.5758H131.774Z" fill="black"/>
<path d="M134.516 20.4749C134.516 19.3686 134.789 18.3917 135.349 17.5728C135.924 16.7395 136.657 16.3229 137.504 16.3229C138.352 16.3229 139.07 16.7395 139.674 17.5728C140.249 18.3773 140.536 19.3399 140.536 20.4749C140.536 21.6098 140.249 22.558 139.674 23.3626C139.099 24.1958 138.366 24.5981 137.504 24.5981C136.642 24.5981 135.924 24.1958 135.349 23.3626C134.789 22.5724 134.516 21.6098 134.516 20.4749ZM135.838 20.4749C135.838 21.2507 135.996 21.9403 136.298 22.5437C136.642 23.1471 137.045 23.4488 137.504 23.4488C137.964 23.4488 138.366 23.1471 138.711 22.5437C139.042 21.9259 139.2 21.2363 139.2 20.4749C139.2 19.6703 139.042 18.9807 138.726 18.4061C138.366 17.7883 137.95 17.4722 137.504 17.4722C137.03 17.4722 136.614 17.7883 136.298 18.4061C135.996 19.0095 135.838 19.7134 135.838 20.4749ZM143.61 15.5758V26.5089H142.289V15.5758H143.61Z" fill="black"/>
<path d="M150.295 21.866C149.39 21.9809 148.37 22.024 147.278 22.024H145.353V18.4898H148.14V17.3117H145.353V16.2198H149.477V19.5816H146.675V20.9321H147.408C148.399 20.9321 149.362 20.8747 150.31 20.7741V21.866H150.295ZM146.603 22.8573H154.692V26.7219H153.384V23.9922H146.603V22.8573ZM152.508 22.4406H151.201V19.5816H150.008V18.4323H151.201V15.717H152.508V22.4406ZM153.37 15.559H154.692V22.4406H153.37V15.559Z" fill="black"/>
<path d="M166.759 24.3685V25.5178H155.927V24.3685H166.759ZM157.263 22.7019V16.5242H165.423V17.6592H158.599V19.024H165.337V20.159H158.599V21.5526H165.538V22.7019H157.248H157.263Z" fill="black"/>
<path fill-rule="evenodd" clip-rule="evenodd" d="M92.8112 19.7994C94.2767 19.7994 95.4691 20.1729 96.403 20.92C97.3369 21.6671 97.811 22.5578 97.811 23.6066C97.811 24.6554 97.3369 25.5605 96.403 26.3219C95.4691 27.0833 94.2623 27.4712 92.8112 27.4712C91.3601 27.4712 90.1677 27.0833 89.2338 26.3219C88.2856 25.5605 87.8258 24.6554 87.8258 23.6066C87.8258 22.5578 88.2999 21.6671 89.2338 20.92C90.1677 20.1729 91.3745 19.7994 92.8112 19.7994ZM110.569 19.7994C112.035 19.7994 113.213 20.1729 114.132 20.9344C115.052 21.6958 115.511 22.5866 115.511 23.621C115.511 24.6554 115.052 25.5605 114.132 26.3219C113.213 27.0977 112.02 27.4856 110.569 27.4856C109.118 27.4856 107.94 27.0977 107.02 26.3219C106.101 25.5461 105.641 24.641 105.641 23.621C105.641 22.6009 106.101 21.6958 107.02 20.9344C107.94 20.1873 109.132 19.7994 110.569 19.7994ZM79.6509 11.3087V16.5669H81.9065V18.3053H79.6509V26.9828H77.4814V24.052C76.8205 24.641 75.8579 24.9283 74.5649 24.9283H65.3699V23.2331H69.5795V21.5665C68.8036 21.4372 68.1427 21.1355 67.5968 20.6901C66.8497 20.0724 66.4618 19.3253 66.4618 18.4633C66.4618 17.6013 66.8497 16.8542 67.6255 16.2365C68.4014 15.6043 69.4071 15.3026 70.657 15.3026C71.907 15.3026 72.9127 15.6187 73.6885 16.2365C74.4643 16.8686 74.8522 17.6013 74.8522 18.4633C74.8522 19.3253 74.4787 20.0724 73.7172 20.6901C73.1856 21.1211 72.5247 21.4229 71.7633 21.5665V23.2331H74.1913C76.3752 23.2331 77.4671 22.3854 77.4671 20.7045V11.3087H79.6365H79.6509ZM51.9797 22.4716V23.9658C51.9797 24.8278 52.3963 25.2588 53.244 25.2588H61.7206V26.9397H52.7124C50.7728 26.9397 49.7958 26.0346 49.7958 24.2244V22.4716H51.9797ZM110.583 21.4516C109.75 21.4516 109.075 21.6671 108.572 22.0837C108.069 22.5147 107.811 23.0176 107.811 23.621C107.811 24.2244 108.055 24.7272 108.558 25.1726C109.061 25.6036 109.736 25.8334 110.583 25.8334C111.431 25.8334 112.092 25.6179 112.595 25.1869C113.098 24.7559 113.356 24.2387 113.356 23.621C113.356 23.0032 113.098 22.5147 112.595 22.0837C112.078 21.6671 111.417 21.4516 110.583 21.4516ZM92.8256 21.4516C91.9923 21.4516 91.3027 21.6671 90.7854 22.0837C90.2682 22.5147 90.0096 23.0176 90.0096 23.621C90.0096 24.2244 90.2682 24.7416 90.7854 25.1726C91.3027 25.6036 91.9923 25.8334 92.84 25.8334C93.6876 25.8334 94.3629 25.6179 94.8801 25.1869C95.3973 24.7559 95.6703 24.2387 95.6703 23.621C95.6703 23.0032 95.4117 22.5147 94.8801 22.0837C94.3485 21.6671 93.6733 21.4516 92.84 21.4516H92.8256ZM61.6488 11.3087V15.317H63.9044V17.0266H61.6488V22.5578H59.4793V11.3087H61.6488ZM52.4969 15.2883C53.7325 15.2883 54.7382 15.6043 55.5284 16.2221C56.3042 16.8542 56.6921 17.5869 56.6921 18.4489C56.6921 19.3109 56.3042 20.0724 55.5284 20.7045C54.7525 21.3367 53.7468 21.6384 52.4969 21.6384C51.2469 21.6384 50.2412 21.3223 49.4654 20.7045C48.6896 20.0724 48.3017 19.3253 48.3017 18.4489C48.3017 17.5726 48.6896 16.8399 49.4654 16.2221C50.2412 15.59 51.2469 15.2883 52.4969 15.2883ZM70.6714 16.8255C70.0967 16.8255 69.6082 16.9835 69.2059 17.2996C68.8036 17.6157 68.5881 18.0036 68.5881 18.4633C68.5881 18.923 68.7893 19.3253 69.2059 19.6414C69.6082 19.9574 70.0967 20.1155 70.6714 20.1155C71.2461 20.1155 71.7345 19.9574 72.1368 19.6414C72.5391 19.3253 72.7546 18.923 72.7546 18.4633C72.7546 18.0036 72.5535 17.6157 72.1368 17.2996C71.7202 16.9835 71.2461 16.8255 70.6714 16.8255ZM52.4969 16.8255C51.9222 16.8255 51.4337 16.9835 51.0314 17.2996C50.6291 17.6157 50.428 18.0036 50.428 18.4633C50.428 18.923 50.6291 19.3253 51.0314 19.6414C51.4337 19.9574 51.9222 20.1155 52.4969 20.1155C53.0716 20.1155 53.5601 19.9574 53.9623 19.6414C54.3646 19.3253 54.5658 18.9374 54.5658 18.4633C54.5658 17.9892 54.3646 17.6157 53.9623 17.2996C53.5601 16.9835 53.0716 16.8255 52.4969 16.8255ZM115.655 11.323V19.7707H113.486V17.8024H110.282V19.0954H104.089C102.394 19.0954 101.532 18.2047 101.532 16.4376V11.5816H109.104C109.894 11.5816 110.296 11.9839 110.296 12.7884V13.0758H113.5V11.323H115.669H115.655ZM94.837 11.323V14.3257H96.2737V11.323H98.4144V19.6126H96.2737V16.0353H94.837V19.2247H92.7394V11.3087H94.837V11.323ZM88.5442 11.5385V12.1707C88.5442 14.1102 88.9177 15.5181 89.6792 16.3658C90.3113 17.0697 91.0297 17.5007 91.8342 17.6444V19.354C90.455 19.1673 89.2625 18.607 88.2425 17.6731C87.9551 17.4145 87.7109 17.1272 87.4954 16.7824C87.2799 17.1272 87.0212 17.4145 86.7483 17.6731C85.7282 18.607 84.5357 19.1673 83.1565 19.354V17.6444C83.961 17.5007 84.6794 17.0697 85.3115 16.3658C86.0586 15.5181 86.4466 14.1102 86.4466 12.1707V11.5385H88.5585H88.5442ZM108.141 13.2338H103.673V16.4089C103.673 17.0841 103.989 17.4289 104.607 17.4289H108.141V13.2338ZM113.486 14.7423H110.282V16.1072H113.486V14.7423ZM57.3961 13.1907V14.7567H47.5833V13.1907H57.3961ZM75.5419 13.1907V14.7567H65.7291V13.1907H75.5419ZM73.1856 11.0357V12.616H68.1571V11.0357H73.1856ZM55.0111 11.0357V12.616H49.9826V11.0357H55.0111Z" fill="black"/>
</g>
<defs>
<clipPath id="clip0_6377_296">
<rect width="167" height="38" fill="white"/>
</clipPath>
</defs>
</svg>
