<svg width="100" height="117" viewBox="0 0 100 117" fill="none" xmlns="http://www.w3.org/2000/svg">
<circle cx="59" cy="59" r="37" fill="#FFDAC3"/>
<path d="M56.2369 37.9099C56.2369 36.3836 57.4742 35.1462 59.0005 35.1462C60.5268 35.1462 61.7641 36.3836 61.7641 37.9099V39.6351C63.3926 39.7967 64.967 40.1021 66.4651 40.5456L67.5754 38.6226C68.3385 37.3007 70.0288 36.8479 71.3506 37.611C72.6724 38.3742 73.1253 40.0644 72.3621 41.3862L71.5619 42.7723C72.4876 43.3309 73.3593 43.9583 74.1685 44.6525C74.7171 45.1231 75.2362 45.6236 75.7231 46.1532L77.3369 45.2214C78.6588 44.4583 80.349 44.9111 81.1121 46.233C81.8753 47.5548 81.4224 49.245 80.1006 50.0082L78.7876 50.7662C79.5487 52.4312 80.0744 54.2599 80.3274 56.2383H81.5459C83.0723 56.2383 84.3096 57.4756 84.3096 59.0019C84.3096 60.5282 83.0723 61.7656 81.5459 61.7656H80.3269C80.0736 63.7425 79.548 65.5699 78.7873 67.2338L80.1949 68.0465C81.5167 68.8097 81.9696 70.4999 81.2064 71.8217C80.4433 73.1435 78.7531 73.5964 77.4312 72.8333L75.7227 71.8468C75.2359 72.3762 74.717 72.8766 74.1685 73.3471C73.3593 74.0412 72.4877 74.6686 71.5619 75.2272L72.1718 76.2835C72.935 77.6054 72.4821 79.2956 71.1602 80.0587C69.8384 80.8219 68.1482 80.369 67.385 79.0472L66.4652 77.4539C64.967 77.8974 63.3926 78.2028 61.7641 78.3644V80.0917C61.7641 81.618 60.5268 82.8553 59.0005 82.8553C57.4742 82.8553 56.2369 81.618 56.2369 80.0917V78.3645C54.6091 78.203 53.0354 77.898 51.5379 77.4548L50.4292 79.3751C49.6661 80.6969 47.9759 81.1498 46.654 80.3867C45.3322 79.6235 44.8793 77.9333 45.6425 76.6115L46.4408 75.2288C45.514 74.6698 44.6415 74.0418 43.8315 73.3471C43.2827 72.8763 42.7636 72.3756 42.2765 71.8459L40.661 72.7786C39.3392 73.5418 37.6489 73.0889 36.8858 71.7671C36.1226 70.4452 36.5755 68.755 37.8973 67.9919L39.2122 67.2328C38.4518 65.5691 37.9264 63.742 37.6731 61.7656H36.455C34.9287 61.7656 33.6914 60.5282 33.6914 59.0019C33.6914 57.4756 34.9287 56.2383 36.455 56.2383H37.6726C37.9256 54.2604 38.4511 52.432 39.2119 50.7673L37.8035 49.9542C36.4817 49.191 36.0288 47.5008 36.792 46.179C37.5551 44.8572 39.2453 44.4043 40.5672 45.1674L42.276 46.1541C42.7632 45.6242 43.2825 45.1233 43.8315 44.6525C44.6415 43.9577 45.5141 43.3297 46.4408 42.7707L45.8317 41.7158C45.0686 40.3939 45.5215 38.7037 46.8433 37.9406C48.1651 37.1774 49.8553 37.6303 50.6185 38.9521L51.538 40.5447C53.0355 40.1016 54.6092 39.7965 56.2369 39.635V37.9099Z" fill="#FF8F4C"/>
<path d="M73.546 54.6361C73.546 57.046 71.5923 58.9997 69.1824 58.9997C66.7724 58.9997 64.8187 57.046 64.8187 54.6361C64.8187 52.2262 66.7724 50.2725 69.1824 50.2725C71.5923 50.2725 73.546 52.2262 73.546 54.6361Z" fill="#D3540D"/>
<path d="M51.7278 59.7271C51.7278 61.7353 50.0997 63.3634 48.0914 63.3634C46.0832 63.3634 44.4551 61.7353 44.4551 59.7271C44.4551 57.7188 46.0832 56.0907 48.0914 56.0907C50.0997 56.0907 51.7278 57.7188 51.7278 59.7271Z" fill="#D3540D"/>
<path d="M53.9096 70.6361C55.1146 70.6361 56.0914 69.6592 56.0914 68.4543C56.0914 67.2493 55.1146 66.2725 53.9096 66.2725C52.7047 66.2725 51.7278 67.2493 51.7278 68.4543C51.7278 69.6592 52.7047 70.6361 53.9096 70.6361Z" fill="#D3540D"/>
</svg>
