<svg xmlns="http://www.w3.org/2000/svg" fill="none" viewBox="0 0 44 44" width="44" height="44" aria-hidden="true"><path fill="#566476" d="M12.375 5.156a1.719 1.719 0 0 1 3.438 0V9.97a1.719 1.719 0 1 1-3.438 0V5.156ZM28.188 5.156a1.719 1.719 0 1 1 3.437 0V9.97a1.719 1.719 0 1 1-3.438 0V5.156Z"></path><path fill="#fff" d="M6.875 12.375a5.5 5.5 0 0 1 5.5-5.5h19.25a5.5 5.5 0 0 1 5.5 5.5V33a5.5 5.5 0 0 1-5.5 5.5h-19.25a5.5 5.5 0 0 1-5.5-5.5V12.375Z"></path><path fill="#E56C26" fill-rule="evenodd" d="M28.403 21.107a1.647 1.647 0 0 1 0 2.33l-5.99 5.99a1.647 1.647 0 0 1-2.33 0l-4.492-4.493a1.647 1.647 0 0 1 2.33-2.33l3.327 3.328 4.825-4.825a1.647 1.647 0 0 1 2.33 0Z" clip-rule="evenodd"></path><path fill="#FF8F4C" fill-rule="evenodd" d="M6.875 12.375a5.5 5.5 0 0 1 5.5-5.5h19.25a5.5 5.5 0 0 1 5.5 5.5V33a5.5 5.5 0 0 1-5.5 5.5h-19.25a5.5 5.5 0 0 1-5.5-5.5V12.375Zm27.5 2.75H9.625V33a2.75 2.75 0 0 0 2.75 2.75h19.25a2.75 2.75 0 0 0 2.75-2.75V15.125Z" clip-rule="evenodd"></path></svg>